<?xml version="1.0" encoding="UTF-8"?>
<!DOCTYPE svg PUBLIC "-//W3C//DTD SVG 1.1//EN" "http://www.w3.org/Graphics/SVG/1.1/DTD/svg11.dtd">
<svg xmlns="http://www.w3.org/2000/svg" version="1.1" width="500px" height="500px" style="shape-rendering:geometricPrecision; text-rendering:geometricPrecision; image-rendering:optimizeQuality; fill-rule:evenodd; clip-rule:evenodd" xmlns:xlink="http://www.w3.org/1999/xlink">
<g><path style="opacity:0.227" fill="#e37ca9" d="M 225.5,115.5 C 225.5,115.833 225.5,116.167 225.5,116.5C 224.5,116.5 223.5,116.5 222.5,116.5C 203.326,116.17 184.326,116.503 165.5,117.5C 164.833,117.5 164.167,117.5 163.5,117.5C 163.611,116.883 163.944,116.383 164.5,116C 184.831,115.5 205.164,115.333 225.5,115.5 Z"/></g>
<g><path style="opacity:0.285" fill="#c77eac" d="M 225.5,116.5 C 225.5,116.167 225.5,115.833 225.5,115.5C 254.835,115.333 284.169,115.5 313.5,116C 316.365,116.183 319.031,116.683 321.5,117.5C 317.167,117.5 312.833,117.5 308.5,117.5C 280.878,116.517 253.211,116.184 225.5,116.5 Z"/></g>
<g><path style="opacity:1" fill="#960264" d="M 222.5,116.5 C 223.5,116.5 224.5,116.5 225.5,116.5C 253.211,116.184 280.878,116.517 308.5,117.5C 313.577,118.083 318.577,119.083 323.5,120.5C 321.095,120.866 318.762,121.533 316.5,122.5C 313.953,120.725 311.12,120.725 308,122.5C 305.507,121.054 303.673,121.721 302.5,124.5C 305.897,125.172 309.23,126.005 312.5,127C 311.5,127.333 310.5,127.667 309.5,128C 307.848,129.705 306.181,131.871 304.5,134.5C 303.675,135.386 302.675,135.719 301.5,135.5C 301.551,137.57 300.885,139.403 299.5,141C 299.995,143.009 299.995,145.176 299.5,147.5C 294.111,148.483 292.611,151.483 295,156.5C 295.333,156.167 295.667,155.833 296,155.5C 296.49,156.793 296.657,158.127 296.5,159.5C 295.5,159.5 294.5,159.5 293.5,159.5C 293.517,163.117 292.517,166.45 290.5,169.5C 288.899,170.204 287.565,171.371 286.5,173C 289.882,174.063 292.882,175.563 295.5,177.5C 287.167,177.5 278.833,177.5 270.5,177.5C 273.344,176.384 276.344,175.384 279.5,174.5C 277.078,172.952 277.078,171.286 279.5,169.5C 278.833,168.833 278.167,168.167 277.5,167.5C 279.749,163.359 281.583,159.025 283,154.5C 283.494,152.866 283.66,151.199 283.5,149.5C 284.822,149.67 285.989,149.337 287,148.5C 288.29,144.27 288.79,139.936 288.5,135.5C 289.822,135.67 290.989,135.337 292,134.5C 292.3,131.428 293.466,128.761 295.5,126.5C 294.624,125.749 293.624,125.249 292.5,125C 294.935,124.147 297.269,123.147 299.5,122C 296.77,119.726 293.604,118.56 290,118.5C 280.852,117.668 271.685,117.334 262.5,117.5C 254.5,117.5 246.5,117.5 238.5,117.5C 232.974,117.821 227.64,117.488 222.5,116.5 Z"/></g>
<g><path style="opacity:1" fill="#dc0266" d="M 200.5,119.5 C 204.299,121.444 208.299,122.611 212.5,123C 208.474,124.06 204.474,125.227 200.5,126.5C 201.5,127.333 202.5,128.167 203.5,129C 197.253,140.71 193.086,152.876 191,165.5C 190.261,168.102 188.595,169.769 186,170.5C 186.166,175 184,177.167 179.5,177C 170.506,177.5 161.506,177.666 152.5,177.5C 152.701,171.491 153.034,165.491 153.5,159.5C 154.167,158.5 154.833,157.5 155.5,156.5C 154.906,163.175 154.24,169.842 153.5,176.5C 161.613,176.886 169.613,176.219 177.5,174.5C 176.873,169.859 176.54,165.193 176.5,160.5C 179.48,160.38 182.313,159.713 185,158.5C 185.244,153.6 186.411,148.934 188.5,144.5C 187.882,142.169 188.716,140.169 191,138.5C 191.494,136.866 191.66,135.199 191.5,133.5C 198.407,131.839 198.74,129.672 192.5,127C 195.408,126.311 198.075,125.145 200.5,123.5C 195.99,121.947 191.324,121.114 186.5,121C 187,120.5 187.5,120 188,119.5C 191.955,119.629 196.122,119.629 200.5,119.5 Z"/></g>
<g><path style="opacity:1" fill="#a50165" d="M 262.5,117.5 C 271.685,117.334 280.852,117.668 290,118.5C 293.604,118.56 296.77,119.726 299.5,122C 297.269,123.147 294.935,124.147 292.5,125C 293.624,125.249 294.624,125.749 295.5,126.5C 293.466,128.761 292.3,131.428 292,134.5C 290.989,135.337 289.822,135.67 288.5,135.5C 288.79,139.936 288.29,144.27 287,148.5C 285.989,149.337 284.822,149.67 283.5,149.5C 283.66,151.199 283.494,152.866 283,154.5C 281.583,159.025 279.749,163.359 277.5,167.5C 278.167,168.167 278.833,168.833 279.5,169.5C 277.078,171.286 277.078,172.952 279.5,174.5C 276.344,175.384 273.344,176.384 270.5,177.5C 260.167,177.5 249.833,177.5 239.5,177.5C 244.349,176.834 249.349,176.167 254.5,175.5C 253.675,174.614 252.675,174.281 251.5,174.5C 251.024,168.887 252.524,163.887 256,159.5C 256.691,161.891 257.691,161.891 259,159.5C 259.839,156.86 259.339,154.527 257.5,152.5C 258.919,150.664 260.086,148.664 261,146.5C 261.568,140.703 262.734,135.036 264.5,129.5C 266.595,127.411 268.428,127.411 270,129.5C 270.692,128.975 271.192,128.308 271.5,127.5C 268.383,126.016 265.05,125.016 261.5,124.5C 265.421,123.105 269.421,121.938 273.5,121C 269.898,119.243 266.232,118.076 262.5,117.5 Z"/></g>
<g><path style="opacity:1" fill="#d20266" d="M 200.5,118.5 C 208.174,118.334 215.841,118.5 223.5,119C 229.989,120.553 229.989,121.553 223.5,122C 224.833,122.667 224.833,123.333 223.5,124C 221.065,124.853 218.731,125.853 216.5,127C 218.18,127.347 219.18,128.347 219.5,130C 218.158,134.157 216.492,138.157 214.5,142C 215.33,143.465 215.496,144.965 215,146.5C 211.75,149.101 210.916,152.267 212.5,156C 209.258,156.283 208.924,157.117 211.5,158.5C 210.311,159.429 208.978,159.762 207.5,159.5C 207.509,161.308 207.009,162.975 206,164.5C 205.333,165.833 204.667,165.833 204,164.5C 202.605,166.14 201.105,167.64 199.5,169C 201.897,170.718 204.564,171.885 207.5,172.5C 207.167,172.833 206.833,173.167 206.5,173.5C 200.354,174.727 194.354,176.06 188.5,177.5C 186.585,177.216 184.919,177.549 183.5,178.5C 172.986,178.828 162.653,178.494 152.5,177.5C 161.506,177.666 170.506,177.5 179.5,177C 184,177.167 186.166,175 186,170.5C 188.595,169.769 190.261,168.102 191,165.5C 193.086,152.876 197.253,140.71 203.5,129C 202.5,128.167 201.5,127.333 200.5,126.5C 204.474,125.227 208.474,124.06 212.5,123C 208.299,122.611 204.299,121.444 200.5,119.5C 200.5,119.167 200.5,118.833 200.5,118.5 Z"/></g>
<g><path style="opacity:1" fill="#8e0067" d="M 323.5,120.5 C 324.043,120.56 324.376,120.893 324.5,121.5C 322.955,122.452 321.288,122.785 319.5,122.5C 319.33,123.822 319.663,124.989 320.5,126C 327.47,126.669 327.804,127.169 321.5,127.5C 320.242,131.036 319.409,134.703 319,138.5C 318.667,137.5 318.333,136.5 318,135.5C 317.259,138.562 317.425,141.562 318.5,144.5C 315.691,145.764 313.524,147.764 312,150.5C 311.863,154.622 312.196,158.622 313,162.5C 311.736,164.607 309.903,165.607 307.5,165.5C 307.318,167.675 306.651,169.675 305.5,171.5C 309.074,177.278 307.407,179.611 300.5,178.5C 298.958,177.699 297.292,177.366 295.5,177.5C 292.882,175.563 289.882,174.063 286.5,173C 287.565,171.371 288.899,170.204 290.5,169.5C 292.517,166.45 293.517,163.117 293.5,159.5C 294.5,159.5 295.5,159.5 296.5,159.5C 296.657,158.127 296.49,156.793 296,155.5C 295.667,155.833 295.333,156.167 295,156.5C 292.611,151.483 294.111,148.483 299.5,147.5C 299.995,145.176 299.995,143.009 299.5,141C 300.885,139.403 301.551,137.57 301.5,135.5C 302.675,135.719 303.675,135.386 304.5,134.5C 306.181,131.871 307.848,129.705 309.5,128C 310.5,127.667 311.5,127.333 312.5,127C 309.23,126.005 305.897,125.172 302.5,124.5C 303.673,121.721 305.507,121.054 308,122.5C 311.12,120.725 313.953,120.725 316.5,122.5C 318.762,121.533 321.095,120.866 323.5,120.5 Z"/></g>
<g><path style="opacity:0.302" fill="#d3a6c8" d="M 332.5,119.5 C 335.067,119.721 337.401,120.388 339.5,121.5C 338.167,121.5 336.833,121.5 335.5,121.5C 334.29,121.068 333.29,120.401 332.5,119.5 Z"/></g>
<g><path style="opacity:1" fill="#c40266" d="M 165.5,117.5 C 184.326,116.503 203.326,116.17 222.5,116.5C 227.64,117.488 232.974,117.821 238.5,117.5C 245.345,118.167 252.345,118.833 259.5,119.5C 258.146,120.206 256.479,120.206 254.5,119.5C 249.872,122.076 244.872,123.576 239.5,124C 244.477,125.107 249.477,126.107 254.5,127C 253.24,128.113 252.073,128.28 251,127.5C 249.69,130.212 247.857,132.545 245.5,134.5C 246.167,135.167 246.833,135.833 247.5,136.5C 245.993,137.739 244.826,137.405 244,135.5C 243.009,136.939 241.676,137.939 240,138.5C 239.506,140.134 239.34,141.801 239.5,143.5C 240.5,143.5 241.5,143.5 242.5,143.5C 242.5,144.833 242.5,146.167 242.5,147.5C 241.448,147.351 240.448,147.517 239.5,148C 237.629,150.37 235.962,152.87 234.5,155.5C 233.537,162.451 232.204,169.284 230.5,176C 216.489,176.349 202.489,176.849 188.5,177.5C 194.354,176.06 200.354,174.727 206.5,173.5C 206.833,173.167 207.167,172.833 207.5,172.5C 204.564,171.885 201.897,170.718 199.5,169C 201.105,167.64 202.605,166.14 204,164.5C 204.667,165.833 205.333,165.833 206,164.5C 207.009,162.975 207.509,161.308 207.5,159.5C 208.978,159.762 210.311,159.429 211.5,158.5C 208.924,157.117 209.258,156.283 212.5,156C 210.916,152.267 211.75,149.101 215,146.5C 215.496,144.965 215.33,143.465 214.5,142C 216.492,138.157 218.158,134.157 219.5,130C 219.18,128.347 218.18,127.347 216.5,127C 218.731,125.853 221.065,124.853 223.5,124C 224.833,123.333 224.833,122.667 223.5,122C 229.989,121.553 229.989,120.553 223.5,119C 215.841,118.5 208.174,118.334 200.5,118.5C 188.85,117.731 177.183,117.398 165.5,117.5 Z"/></g>
<g><path style="opacity:0.173" fill="#e2bed7" d="M 339.5,121.5 C 342.542,121.733 345.208,122.733 347.5,124.5C 344.458,124.267 341.792,123.267 339.5,121.5 Z"/></g>
<g><path style="opacity:0.835" fill="#db5e8c" d="M 163.5,117.5 C 162.236,124.162 160.236,130.496 157.5,136.5C 158.115,131.474 158.949,126.474 160,121.5C 160.498,119.456 161.665,118.122 163.5,117.5 Z"/></g>
<g><path style="opacity:1" fill="#e90265" d="M 163.5,117.5 C 164.167,117.5 164.833,117.5 165.5,117.5C 177.183,117.398 188.85,117.731 200.5,118.5C 200.5,118.833 200.5,119.167 200.5,119.5C 196.122,119.629 191.955,119.629 188,119.5C 187.5,120 187,120.5 186.5,121C 191.324,121.114 195.99,121.947 200.5,123.5C 198.075,125.145 195.408,126.311 192.5,127C 198.74,129.672 198.407,131.839 191.5,133.5C 191.66,135.199 191.494,136.866 191,138.5C 188.716,140.169 187.882,142.169 188.5,144.5C 186.411,148.934 185.244,153.6 185,158.5C 182.313,159.713 179.48,160.38 176.5,160.5C 176.54,165.193 176.873,169.859 177.5,174.5C 169.613,176.219 161.613,176.886 153.5,176.5C 154.24,169.842 154.906,163.175 155.5,156.5C 156.747,150.37 157.414,144.037 157.5,137.5C 157.5,137.167 157.5,136.833 157.5,136.5C 160.236,130.496 162.236,124.162 163.5,117.5 Z"/></g>
<g><path style="opacity:1" fill="#b30265" d="M 238.5,117.5 C 246.5,117.5 254.5,117.5 262.5,117.5C 266.232,118.076 269.898,119.243 273.5,121C 269.421,121.938 265.421,123.105 261.5,124.5C 265.05,125.016 268.383,126.016 271.5,127.5C 271.192,128.308 270.692,128.975 270,129.5C 268.428,127.411 266.595,127.411 264.5,129.5C 262.734,135.036 261.568,140.703 261,146.5C 260.086,148.664 258.919,150.664 257.5,152.5C 259.339,154.527 259.839,156.86 259,159.5C 257.691,161.891 256.691,161.891 256,159.5C 252.524,163.887 251.024,168.887 251.5,174.5C 252.675,174.281 253.675,174.614 254.5,175.5C 249.349,176.167 244.349,176.834 239.5,177.5C 238.833,177.5 238.5,177.833 238.5,178.5C 220.167,178.5 201.833,178.5 183.5,178.5C 184.919,177.549 186.585,177.216 188.5,177.5C 202.489,176.849 216.489,176.349 230.5,176C 232.204,169.284 233.537,162.451 234.5,155.5C 235.962,152.87 237.629,150.37 239.5,148C 240.448,147.517 241.448,147.351 242.5,147.5C 242.5,146.167 242.5,144.833 242.5,143.5C 241.5,143.5 240.5,143.5 239.5,143.5C 239.34,141.801 239.506,140.134 240,138.5C 241.676,137.939 243.009,136.939 244,135.5C 244.826,137.405 245.993,137.739 247.5,136.5C 246.833,135.833 246.167,135.167 245.5,134.5C 247.857,132.545 249.69,130.212 251,127.5C 252.073,128.28 253.24,128.113 254.5,127C 249.477,126.107 244.477,125.107 239.5,124C 244.872,123.576 249.872,122.076 254.5,119.5C 256.479,120.206 258.146,120.206 259.5,119.5C 252.345,118.833 245.345,118.167 238.5,117.5 Z"/></g>
<g><path style="opacity:1" fill="#810665" d="M 308.5,117.5 C 312.833,117.5 317.167,117.5 321.5,117.5C 325.425,117.43 329.091,118.097 332.5,119.5C 333.29,120.401 334.29,121.068 335.5,121.5C 339.833,123.5 344.167,125.5 348.5,127.5C 345.5,127.5 342.5,127.5 339.5,127.5C 339.5,130.833 339.5,134.167 339.5,137.5C 338.5,137.5 337.5,137.5 336.5,137.5C 337.401,140.872 337.401,144.205 336.5,147.5C 333.991,148.921 331.657,150.588 329.5,152.5C 330.544,153.623 331.21,154.956 331.5,156.5C 329.106,162.287 326.44,167.954 323.5,173.5C 323.833,174.167 324.167,174.833 324.5,175.5C 326.003,174.948 327.669,174.948 329.5,175.5C 329.577,178.509 328.244,180.676 325.5,182C 326.167,182.667 326.833,183.333 327.5,184C 327.27,187.448 327.27,190.948 327.5,194.5C 324.8,192.954 322.967,190.621 322,187.5C 321.667,188.167 321.333,188.833 321,189.5C 317.155,183.704 311.655,181.037 304.5,181.5C 303.167,180.5 301.833,179.5 300.5,178.5C 307.407,179.611 309.074,177.278 305.5,171.5C 306.651,169.675 307.318,167.675 307.5,165.5C 309.903,165.607 311.736,164.607 313,162.5C 312.196,158.622 311.863,154.622 312,150.5C 313.524,147.764 315.691,145.764 318.5,144.5C 317.425,141.562 317.259,138.562 318,135.5C 318.333,136.5 318.667,137.5 319,138.5C 319.409,134.703 320.242,131.036 321.5,127.5C 327.804,127.169 327.47,126.669 320.5,126C 319.663,124.989 319.33,123.822 319.5,122.5C 321.288,122.785 322.955,122.452 324.5,121.5C 324.376,120.893 324.043,120.56 323.5,120.5C 318.577,119.083 313.577,118.083 308.5,117.5 Z"/></g>
<g><path style="opacity:1" fill="#770066" d="M 348.5,127.5 C 349.609,128.29 350.942,128.79 352.5,129C 353.833,129.667 353.833,130.333 352.5,131C 355.547,131.516 357.88,133.016 359.5,135.5C 356.22,138.092 353.22,140.426 350.5,142.5C 351.52,144.432 351.687,146.432 351,148.5C 347.991,154.887 345.991,161.554 345,168.5C 342.752,175.663 339.419,182.33 335,188.5C 334.333,187.167 333.667,187.167 333,188.5C 332.985,192.415 332.152,196.082 330.5,199.5C 331.265,201.295 331.932,203.128 332.5,205C 332.252,206.749 331.252,207.582 329.5,207.5C 329.574,203.016 328.907,198.683 327.5,194.5C 327.27,190.948 327.27,187.448 327.5,184C 326.833,183.333 326.167,182.667 325.5,182C 328.244,180.676 329.577,178.509 329.5,175.5C 327.669,174.948 326.003,174.948 324.5,175.5C 324.167,174.833 323.833,174.167 323.5,173.5C 326.44,167.954 329.106,162.287 331.5,156.5C 331.21,154.956 330.544,153.623 329.5,152.5C 331.657,150.588 333.991,148.921 336.5,147.5C 337.401,144.205 337.401,140.872 336.5,137.5C 337.5,137.5 338.5,137.5 339.5,137.5C 339.5,134.167 339.5,130.833 339.5,127.5C 342.5,127.5 345.5,127.5 348.5,127.5 Z"/></g>
<g><path style="opacity:0.137" fill="#e4c0e1" d="M 349.5,125.5 C 352.754,125.794 355.421,127.127 357.5,129.5C 354.515,128.674 351.849,127.341 349.5,125.5 Z"/></g>
<g><path style="opacity:0.078" fill="#edd0e3" d="M 359.5,130.5 C 361.027,130.427 362.027,131.094 362.5,132.5C 360.973,132.573 359.973,131.906 359.5,130.5 Z"/></g>
<g><path style="opacity:0.075" fill="#eacee6" d="M 362.5,132.5 C 364.027,132.427 365.027,133.094 365.5,134.5C 363.973,134.573 362.973,133.906 362.5,132.5 Z"/></g>
<g><path style="opacity:0.251" fill="#d8c2d8" d="M 367.5,135.5 C 368.833,136.167 369.833,137.167 370.5,138.5C 368.5,138.5 367.5,137.5 367.5,135.5 Z"/></g>
<g><path style="opacity:0.557" fill="#bf98bd" d="M 370.5,138.5 C 373.573,140.569 375.906,143.236 377.5,146.5C 374.427,144.431 372.094,141.764 370.5,138.5 Z"/></g>
<g><path style="opacity:1" fill="#672062" d="M 335.5,121.5 C 336.833,121.5 338.167,121.5 339.5,121.5C 341.792,123.267 344.458,124.267 347.5,124.5C 348.492,124.328 349.158,124.662 349.5,125.5C 351.849,127.341 354.515,128.674 357.5,129.5C 358.492,129.328 359.158,129.662 359.5,130.5C 359.973,131.906 360.973,132.573 362.5,132.5C 362.973,133.906 363.973,134.573 365.5,134.5C 366.167,134.833 366.833,135.167 367.5,135.5C 367.5,137.5 368.5,138.5 370.5,138.5C 372.094,141.764 374.427,144.431 377.5,146.5C 377.738,148.404 378.738,149.738 380.5,150.5C 381.338,150.842 381.672,151.508 381.5,152.5C 381.427,154.027 382.094,155.027 383.5,155.5C 384.256,159.767 385.589,163.767 387.5,167.5C 388.788,173.82 388.788,180.153 387.5,186.5C 385.603,188.698 384.603,191.364 384.5,194.5C 384.167,194.5 383.833,194.5 383.5,194.5C 384.312,188.364 384.979,182.197 385.5,176C 385.333,173.167 385.167,170.333 385,167.5C 382.907,164.956 381.907,161.956 382,158.5C 380.048,156.663 379.048,154.329 379,151.5C 375.437,150.109 372.604,147.775 370.5,144.5C 369.808,145.025 369.308,145.692 369,146.5C 368.375,143.388 366.542,141.555 363.5,141C 364.5,140.667 365.5,140.333 366.5,140C 363.798,138.988 361.465,137.488 359.5,135.5C 357.88,133.016 355.547,131.516 352.5,131C 353.833,130.333 353.833,129.667 352.5,129C 350.942,128.79 349.609,128.29 348.5,127.5C 344.167,125.5 339.833,123.5 335.5,121.5 Z"/></g>
<g><path style="opacity:1" fill="#660164" d="M 359.5,135.5 C 361.465,137.488 363.798,138.988 366.5,140C 365.5,140.333 364.5,140.667 363.5,141C 366.542,141.555 368.375,143.388 369,146.5C 369.308,145.692 369.808,145.025 370.5,144.5C 372.604,147.775 375.437,150.109 379,151.5C 379.048,154.329 380.048,156.663 382,158.5C 381.907,161.956 382.907,164.956 385,167.5C 385.167,170.333 385.333,173.167 385.5,176C 384.979,182.197 384.312,188.364 383.5,194.5C 381.292,196.595 380.125,199.262 380,202.5C 378.989,203.337 377.822,203.67 376.5,203.5C 376.5,204.833 376.5,206.167 376.5,207.5C 375.022,207.238 373.689,207.571 372.5,208.5C 373.246,209.736 373.579,211.07 373.5,212.5C 371.263,213.449 368.929,214.116 366.5,214.5C 366.5,215.5 366.5,216.5 366.5,217.5C 365.167,217.5 363.833,217.5 362.5,217.5C 362.5,218.5 362.5,219.5 362.5,220.5C 361.5,220.5 360.5,220.5 359.5,220.5C 359.5,221.5 359.5,222.5 359.5,223.5C 356.05,222.756 354.384,224.09 354.5,227.5C 353.5,227.5 352.5,227.5 351.5,227.5C 351.5,228.5 351.5,229.5 351.5,230.5C 347.438,231.359 343.438,232.526 339.5,234C 336.273,236.688 332.606,238.522 328.5,239.5C 328.062,237.874 327.728,236.207 327.5,234.5C 328.963,225.558 329.629,216.558 329.5,207.5C 331.252,207.582 332.252,206.749 332.5,205C 331.932,203.128 331.265,201.295 330.5,199.5C 332.152,196.082 332.985,192.415 333,188.5C 333.667,187.167 334.333,187.167 335,188.5C 339.419,182.33 342.752,175.663 345,168.5C 345.991,161.554 347.991,154.887 351,148.5C 351.687,146.432 351.52,144.432 350.5,142.5C 353.22,140.426 356.22,138.092 359.5,135.5 Z"/></g>
<g><path style="opacity:0.298" fill="#c094bd" d="M 377.5,146.5 C 379.262,147.262 380.262,148.596 380.5,150.5C 378.738,149.738 377.738,148.404 377.5,146.5 Z"/></g>
<g><path style="opacity:0.165" fill="#d7b6d3" d="M 381.5,152.5 C 382.906,152.973 383.573,153.973 383.5,155.5C 382.094,155.027 381.427,154.027 381.5,152.5 Z"/></g>
<g><path style="opacity:1" fill="#d95987" d="M 157.5,137.5 C 157.414,144.037 156.747,150.37 155.5,156.5C 154.833,157.5 154.167,158.5 153.5,159.5C 154.216,151.929 155.55,144.595 157.5,137.5 Z"/></g>
<g><path style="opacity:0.698" fill="#b792b6" d="M 383.5,155.5 C 385.806,159.085 387.139,163.085 387.5,167.5C 385.589,163.767 384.256,159.767 383.5,155.5 Z"/></g>
<g><path style="opacity:0.828" fill="#862761" d="M 238.5,178.5 C 238.5,177.833 238.833,177.5 239.5,177.5C 249.833,177.5 260.167,177.5 270.5,177.5C 278.833,177.5 287.167,177.5 295.5,177.5C 297.292,177.366 298.958,177.699 300.5,178.5C 301.833,179.5 303.167,180.5 304.5,181.5C 300.127,181.018 295.794,180.352 291.5,179.5C 274.008,178.503 256.341,178.17 238.5,178.5 Z"/></g>
<g><path style="opacity:0.459" fill="#bc5486" d="M 153.5,159.5 C 153.034,165.491 152.701,171.491 152.5,177.5C 162.653,178.494 172.986,178.828 183.5,178.5C 201.833,178.5 220.167,178.5 238.5,178.5C 256.341,178.17 274.008,178.503 291.5,179.5C 244.5,179.5 197.5,179.5 150.5,179.5C 150.656,172.578 151.656,165.911 153.5,159.5 Z"/></g>
<g><path style="opacity:0.718" fill="#8dd0e2" d="M 113.5,180.5 C 109.154,180.334 104.821,180.501 100.5,181C 104.34,181.959 108.007,183.125 111.5,184.5C 105.032,183.978 98.6987,182.811 92.5,181C 95.9845,179.868 99.6511,179.368 103.5,179.5C 107.018,179.502 110.351,179.835 113.5,180.5 Z"/></g>
<g><path style="opacity:0.282" fill="#ebadc9" d="M 397.5,185.5 C 396.732,184.737 396.232,183.737 396,182.5C 394.981,184.502 394.148,186.502 393.5,188.5C 393.104,185.518 393.771,182.851 395.5,180.5C 397.217,181.668 397.884,183.335 397.5,185.5 Z"/></g>
<g><path style="opacity:0.69" fill="#d5628c" d="M 397.5,185.5 C 400.054,194.938 400.054,204.271 397.5,213.5C 397.666,205.493 397.5,197.493 397,189.5C 395.692,188.849 394.859,189.515 394.5,191.5C 394.663,193.857 394.497,196.19 394,198.5C 392.278,201.279 391.111,204.279 390.5,207.5C 389.5,207.5 388.5,207.5 387.5,207.5C 388.597,204.314 389.93,201.314 391.5,198.5C 393.04,196.162 393.706,193.495 393.5,190.5C 393.5,189.833 393.5,189.167 393.5,188.5C 394.148,186.502 394.981,184.502 396,182.5C 396.232,183.737 396.732,184.737 397.5,185.5 Z"/></g>
<g><path style="opacity:1" fill="#34a6d5" d="M 113.5,180.5 C 125.419,180.55 136.752,182.883 147.5,187.5C 146.075,189.294 144.408,190.961 142.5,192.5C 141.614,193.325 141.281,194.325 141.5,195.5C 145.59,195.932 148.59,197.932 150.5,201.5C 152.818,203.185 153.818,205.519 153.5,208.5C 154.822,208.33 155.989,208.663 157,209.5C 157.333,211.5 157.667,213.5 158,215.5C 158.671,216.252 159.504,216.586 160.5,216.5C 160.781,218.963 161.781,221.13 163.5,223C 163.034,224.299 163.034,225.799 163.5,227.5C 153.434,204.439 136.101,190.105 111.5,184.5C 108.007,183.125 104.34,181.959 100.5,181C 104.821,180.501 109.154,180.334 113.5,180.5 Z"/></g>
<g><path style="opacity:0.196" fill="#bf9bbd" d="M 387.5,186.5 C 387.097,189.486 386.097,192.152 384.5,194.5C 384.603,191.364 385.603,188.698 387.5,186.5 Z"/></g>
<g><path style="opacity:1" fill="#1f9ed7" d="M 147.5,187.5 C 159.878,191.213 168.878,198.879 174.5,210.5C 173.833,210.167 173.167,209.833 172.5,209.5C 169.121,206.413 165.955,203.08 163,199.5C 162.13,200.108 161.63,200.941 161.5,202C 162.289,203.626 163.289,205.126 164.5,206.5C 164,206.833 163.5,207.167 163,207.5C 160.224,206.195 157.39,205.029 154.5,204C 156.982,202.406 157.148,200.572 155,198.5C 154.667,198.833 154.333,199.167 154,199.5C 151.448,196.806 150.281,197.473 150.5,201.5C 148.59,197.932 145.59,195.932 141.5,195.5C 141.281,194.325 141.614,193.325 142.5,192.5C 144.408,190.961 146.075,189.294 147.5,187.5 Z"/></g>
<g><path style="opacity:0.231" fill="#f8acd6" d="M 393.5,190.5 C 393.706,193.495 393.04,196.162 391.5,198.5C 391.565,195.572 392.232,192.905 393.5,190.5 Z"/></g>
<g><path style="opacity:1" fill="#762b69" d="M 304.5,181.5 C 311.655,181.037 317.155,183.704 321,189.5C 321.333,188.833 321.667,188.167 322,187.5C 322.967,190.621 324.8,192.954 327.5,194.5C 328.907,198.683 329.574,203.016 329.5,207.5C 329.629,216.558 328.963,225.558 327.5,234.5C 327.728,236.207 328.062,237.874 328.5,239.5C 327.791,240.404 326.791,240.737 325.5,240.5C 325.5,238.167 325.5,235.833 325.5,233.5C 326.578,225.872 327.245,218.206 327.5,210.5C 327.966,206.018 326.966,202.018 324.5,198.5C 320.227,190.028 313.561,184.362 304.5,181.5 Z"/></g>
<g><path style="opacity:0.224" fill="#cba4c5" d="M 324.5,198.5 C 326.966,202.018 327.966,206.018 327.5,210.5C 326.51,206.614 325.51,202.614 324.5,198.5 Z"/></g>
<g><path style="opacity:0.968" fill="#d7386e" d="M 397.5,213.5 C 397.346,218.289 396.013,222.622 393.5,226.5C 394.316,217.793 395.316,209.126 396.5,200.5C 396.483,197.087 395.816,194.087 394.5,191.5C 394.859,189.515 395.692,188.849 397,189.5C 397.5,197.493 397.666,205.493 397.5,213.5 Z"/></g>
<g><path style="opacity:1" fill="#6b2d68" d="M 189.5,191.5 C 195.304,192.402 200.304,194.902 204.5,199C 211.056,199.234 217.389,200.067 223.5,201.5C 224.848,202.186 226.015,203.186 227,204.5C 228.011,203.663 229.178,203.33 230.5,203.5C 230.5,204.167 230.5,204.833 230.5,205.5C 225.352,204.979 220.352,203.979 215.5,202.5C 215.5,203.833 215.5,205.167 215.5,206.5C 219.754,206.725 223.42,208.391 226.5,211.5C 225.965,213.261 224.965,214.594 223.5,215.5C 222.508,217.026 221.008,217.693 219,217.5C 217.833,217.167 216.667,216.833 215.5,216.5C 213.445,214.445 211.112,212.779 208.5,211.5C 207.223,208.966 207.223,206.466 208.5,204C 201.683,200.279 195.35,196.113 189.5,191.5 Z M 222.5,213.5 C 221.081,214.451 219.415,214.784 217.5,214.5C 213.883,212.883 211.216,210.216 209.5,206.5C 215.159,205.97 219.493,208.303 222.5,213.5 Z"/></g>
<g><path style="opacity:0.886" fill="#a16b96" d="M 223.5,201.5 C 226.152,201.41 228.485,202.076 230.5,203.5C 229.178,203.33 228.011,203.663 227,204.5C 226.015,203.186 224.848,202.186 223.5,201.5 Z"/></g>
<g><path style="opacity:1" fill="#8c5b8a" d="M 383.5,194.5 C 383.833,194.5 384.167,194.5 384.5,194.5C 382.455,201.533 378.789,207.533 373.5,212.5C 373.579,211.07 373.246,209.736 372.5,208.5C 373.689,207.571 375.022,207.238 376.5,207.5C 376.5,206.167 376.5,204.833 376.5,203.5C 377.822,203.67 378.989,203.337 380,202.5C 380.125,199.262 381.292,196.595 383.5,194.5 Z"/></g>
<g><path style="opacity:1" fill="#048fd3" d="M 172.5,209.5 C 172.878,211.646 173.212,213.813 173.5,216C 172.713,218.811 171.88,221.644 171,224.5C 169.575,223.788 168.075,223.621 166.5,224C 167.022,223.439 167.355,222.772 167.5,222C 166.66,220.829 165.827,219.662 165,218.5C 164.586,218.957 164.086,219.291 163.5,219.5C 162.265,218.66 161.265,217.66 160.5,216.5C 159.504,216.586 158.671,216.252 158,215.5C 157.667,213.5 157.333,211.5 157,209.5C 155.989,208.663 154.822,208.33 153.5,208.5C 153.818,205.519 152.818,203.185 150.5,201.5C 150.281,197.473 151.448,196.806 154,199.5C 154.333,199.167 154.667,198.833 155,198.5C 157.148,200.572 156.982,202.406 154.5,204C 157.39,205.029 160.224,206.195 163,207.5C 163.5,207.167 164,206.833 164.5,206.5C 163.289,205.126 162.289,203.626 161.5,202C 161.63,200.941 162.13,200.108 163,199.5C 165.955,203.08 169.121,206.413 172.5,209.5 Z"/></g>
<g><path style="opacity:1" fill="#670264" d="M 188.5,191.5 C 188.833,191.5 189.167,191.5 189.5,191.5C 195.35,196.113 201.683,200.279 208.5,204C 207.223,206.466 207.223,208.966 208.5,211.5C 211.112,212.779 213.445,214.445 215.5,216.5C 216.667,216.833 217.833,217.167 219,217.5C 221.008,217.693 222.508,217.026 223.5,215.5C 224.965,214.594 225.965,213.261 226.5,211.5C 223.42,208.391 219.754,206.725 215.5,206.5C 215.5,205.167 215.5,203.833 215.5,202.5C 220.352,203.979 225.352,204.979 230.5,205.5C 232.632,205.554 233.965,206.554 234.5,208.5C 236.355,209.69 238.188,211.023 240,212.5C 240.617,213.449 240.451,214.282 239.5,215C 242.714,215.349 244.047,216.849 243.5,219.5C 242.476,218.147 241.143,217.48 239.5,217.5C 239.112,219.685 238.112,221.518 236.5,223C 236.645,223.772 236.978,224.439 237.5,225C 234.467,234.224 231.801,243.557 229.5,253C 229.645,253.772 229.978,254.439 230.5,255C 228.899,255.273 227.399,255.773 226,256.5C 225.111,255.112 224.611,255.278 224.5,257C 226.124,259.804 228.124,262.304 230.5,264.5C 227.879,267.623 228.546,269.957 232.5,271.5C 233.11,272.391 233.443,273.391 233.5,274.5C 233.103,275.525 232.437,275.692 231.5,275C 228.983,272.651 226.65,270.151 224.5,267.5C 223.27,263.845 222.103,260.178 221,256.5C 218.959,255.577 216.792,255.244 214.5,255.5C 214.787,261.772 215.787,267.939 217.5,274C 216.828,278.35 215.661,278.517 214,274.5C 213.23,275.598 212.397,275.598 211.5,274.5C 211.5,273.833 211.5,273.167 211.5,272.5C 211.701,269.235 210.534,266.569 208,264.5C 207.723,258.74 207.556,253.073 207.5,247.5C 205.85,245.05 204.683,242.383 204,239.5C 199.264,237.763 196.264,234.429 195,229.5C 194.617,230.056 194.117,230.389 193.5,230.5C 193.678,229.305 194.011,228.138 194.5,227C 191.713,220.774 189.547,214.274 188,207.5C 185.444,204.611 183.777,201.278 183,197.5C 181.365,196.274 179.865,194.941 178.5,193.5C 178.709,192.914 179.043,192.414 179.5,192C 182.482,191.502 185.482,191.335 188.5,191.5 Z M 222.5,213.5 C 221.081,214.451 219.415,214.784 217.5,214.5C 213.883,212.883 211.216,210.216 209.5,206.5C 215.159,205.97 219.493,208.303 222.5,213.5 Z"/></g>
<g><path style="opacity:0.808" fill="#da6591" d="M 387.5,207.5 C 387.939,211.715 386.273,214.715 382.5,216.5C 383.917,213.331 385.583,210.331 387.5,207.5 Z"/></g>
<g><path style="opacity:0.118" fill="#dbaedb" d="M 222.5,213.5 C 223.338,213.842 223.672,214.508 223.5,215.5C 221.265,215.795 219.265,215.461 217.5,214.5C 219.415,214.784 221.081,214.451 222.5,213.5 Z"/></g>
<g><path style="opacity:0.365" fill="#b485ab" d="M 187.5,212.5 C 189.163,214.438 189.829,216.772 189.5,219.5C 188.388,217.401 187.721,215.067 187.5,212.5 Z"/></g>
<g><path style="opacity:0.357" fill="#e68bb4" d="M 382.5,216.5 C 382.443,217.609 382.11,218.609 381.5,219.5C 380.5,220.167 379.5,220.833 378.5,221.5C 379.08,219.251 380.413,217.585 382.5,216.5 Z"/></g>
<g><path style="opacity:1" fill="#874074" d="M 230.5,203.5 C 241.408,208.789 252.408,213.789 263.5,218.5C 266.171,220.118 269.171,220.785 272.5,220.5C 275.249,220.726 277.916,220.393 280.5,219.5C 281.308,219.808 281.975,220.308 282.5,221C 280.559,223.454 278.225,225.287 275.5,226.5C 275.286,224.856 275.62,223.356 276.5,222C 269.811,221.554 263.144,220.887 256.5,220C 252.891,216.854 248.891,214.187 244.5,212C 241.204,210.489 237.871,209.323 234.5,208.5C 233.965,206.554 232.632,205.554 230.5,205.5C 230.5,204.833 230.5,204.167 230.5,203.5 Z"/></g>
<g><path style="opacity:0.086" fill="#edc4e3" d="M 263.5,218.5 C 266.727,218.676 269.727,219.343 272.5,220.5C 269.171,220.785 266.171,220.118 263.5,218.5 Z"/></g>
<g><path style="opacity:1" fill="#f40664" d="M 394.5,191.5 C 395.816,194.087 396.483,197.087 396.5,200.5C 395.316,209.126 394.316,217.793 393.5,226.5C 391.926,226.937 390.759,227.937 390,229.5C 388.007,233.313 385.841,236.98 383.5,240.5C 382.504,240.586 381.671,240.252 381,239.5C 380.667,237.833 380.333,236.167 380,234.5C 378.108,232.946 376.608,231.112 375.5,229C 378.13,226.209 380.13,223.042 381.5,219.5C 382.11,218.609 382.443,217.609 382.5,216.5C 386.273,214.715 387.939,211.715 387.5,207.5C 388.5,207.5 389.5,207.5 390.5,207.5C 391.111,204.279 392.278,201.279 394,198.5C 394.497,196.19 394.663,193.857 394.5,191.5 Z"/></g>
<g><path style="opacity:1" fill="#7c457a" d="M 373.5,212.5 C 367.649,220.354 360.316,226.354 351.5,230.5C 351.5,229.5 351.5,228.5 351.5,227.5C 352.5,227.5 353.5,227.5 354.5,227.5C 354.384,224.09 356.05,222.756 359.5,223.5C 359.5,222.5 359.5,221.5 359.5,220.5C 360.5,220.5 361.5,220.5 362.5,220.5C 362.5,219.5 362.5,218.5 362.5,217.5C 363.833,217.5 365.167,217.5 366.5,217.5C 366.5,216.5 366.5,215.5 366.5,214.5C 368.929,214.116 371.263,213.449 373.5,212.5 Z"/></g>
<g><path style="opacity:0.941" fill="#5a9abc" d="M 174.5,210.5 C 179.478,217.458 183.144,225.125 185.5,233.5C 182.395,229.891 179.895,225.891 178,221.5C 176.413,217.952 175.246,214.285 174.5,210.5 Z"/></g>
<g><path style="opacity:1" fill="#71376d" d="M 188.5,191.5 C 185.482,191.335 182.482,191.502 179.5,192C 179.043,192.414 178.709,192.914 178.5,193.5C 179.865,194.941 181.365,196.274 183,197.5C 183.777,201.278 185.444,204.611 188,207.5C 189.547,214.274 191.713,220.774 194.5,227C 194.011,228.138 193.678,229.305 193.5,230.5C 191,227.34 189.667,223.673 189.5,219.5C 189.829,216.772 189.163,214.438 187.5,212.5C 184.825,204.313 180.491,197.147 174.5,191C 179.352,190.185 184.019,190.352 188.5,191.5 Z"/></g>
<g><path style="opacity:1" fill="#589ac2" d="M 149.5,214.5 C 155.98,220.785 160.98,228.118 164.5,236.5C 161.526,234.673 159.359,232.007 158,228.5C 157.667,228.833 157.333,229.167 157,229.5C 156.667,228.167 156.333,226.833 156,225.5C 153.585,224.589 152.085,222.922 151.5,220.5C 151.296,218.315 150.63,216.315 149.5,214.5 Z"/></g>
<g><path style="opacity:0.635" fill="#8bbddb" d="M 169.5,244.5 C 169.167,244.5 168.833,244.5 168.5,244.5C 166.983,241.965 165.65,239.298 164.5,236.5C 165.097,236.265 165.43,235.765 165.5,235C 164.726,232.846 164.059,230.679 163.5,228.5C 164.117,228.389 164.617,228.056 165,227.5C 166.314,233.249 167.814,238.915 169.5,244.5 Z"/></g>
<g><path style="opacity:1" fill="#2f85ba" d="M 149.5,214.5 C 150.63,216.315 151.296,218.315 151.5,220.5C 148.536,216.454 146.869,216.787 146.5,221.5C 147.5,221.5 148.5,221.5 149.5,221.5C 149.849,225.064 149.183,228.398 147.5,231.5C 146.914,231.291 146.414,230.957 146,230.5C 145.363,232.303 144.197,233.636 142.5,234.5C 141.652,236.409 141.318,238.409 141.5,240.5C 139.092,247.245 137.926,254.245 138,261.5C 137.005,264.77 136.172,268.103 135.5,271.5C 134.818,272.243 134.151,272.909 133.5,273.5C 136.675,253.123 140.175,232.789 144,212.5C 146.301,210.475 148.134,211.142 149.5,214.5 Z"/></g>
<g><path style="opacity:0.451" fill="#9c5688" d="M 275.5,226.5 C 273.507,228.163 271.174,229.33 268.5,230C 261.986,230.82 255.653,230.653 249.5,229.5C 254.844,229.666 260.177,229.499 265.5,229C 268.61,227.476 271.944,226.642 275.5,226.5 Z"/></g>
<g><path style="opacity:1" fill="#097fc2" d="M 151.5,220.5 C 152.085,222.922 153.585,224.589 156,225.5C 156.333,226.833 156.667,228.167 157,229.5C 157.333,229.167 157.667,228.833 158,228.5C 159.359,232.007 161.526,234.673 164.5,236.5C 165.65,239.298 166.983,241.965 168.5,244.5C 168.5,244.833 168.5,245.167 168.5,245.5C 169.108,248.327 170.108,250.993 171.5,253.5C 169.922,252.934 168.588,251.934 167.5,250.5C 165.133,246.428 163.3,242.095 162,237.5C 159.441,240.123 157.108,239.79 155,236.5C 152.059,238.971 148.726,240.637 145,241.5C 144.138,239.913 143.471,238.246 143,236.5C 142.79,238.058 142.29,239.391 141.5,240.5C 141.318,238.409 141.652,236.409 142.5,234.5C 144.197,233.636 145.363,232.303 146,230.5C 146.414,230.957 146.914,231.291 147.5,231.5C 149.183,228.398 149.849,225.064 149.5,221.5C 148.5,221.5 147.5,221.5 146.5,221.5C 146.869,216.787 148.536,216.454 151.5,220.5 Z"/></g>
<g><path style="opacity:1" fill="#7f0565" d="M 234.5,208.5 C 237.871,209.323 241.204,210.489 244.5,212C 248.891,214.187 252.891,216.854 256.5,220C 263.144,220.887 269.811,221.554 276.5,222C 275.62,223.356 275.286,224.856 275.5,226.5C 271.944,226.642 268.61,227.476 265.5,229C 260.177,229.499 254.844,229.666 249.5,229.5C 248.761,229.369 248.094,229.536 247.5,230C 249.668,232.998 252.001,235.831 254.5,238.5C 254.5,240.5 255.5,241.5 257.5,241.5C 258.539,243.531 260.205,244.864 262.5,245.5C 262.833,245.5 263.167,245.5 263.5,245.5C 264.471,249.661 267.138,251.328 271.5,250.5C 272.833,251.5 274.167,252.5 275.5,253.5C 268.876,252.931 263.042,250.597 258,246.5C 258.973,247.974 259.473,249.474 259.5,251C 256.099,250.734 254.433,252.234 254.5,255.5C 256.59,255.45 257.923,256.45 258.5,258.5C 257.675,259.386 256.675,259.719 255.5,259.5C 255.798,256.664 255.131,256.164 253.5,258C 253.833,258.333 254.167,258.667 254.5,259C 252.321,260.257 250.321,261.757 248.5,263.5C 247.971,266.257 246.971,268.757 245.5,271C 247.387,270.577 249.387,270.744 251.5,271.5C 251.5,272.5 251.5,273.5 251.5,274.5C 253.359,274.461 254.692,275.294 255.5,277C 251.772,279.565 247.772,280.065 243.5,278.5C 242.21,277.942 241.377,276.942 241,275.5C 239.434,276.061 238.101,275.394 237,273.5C 236.601,273.728 236.435,274.062 236.5,274.5C 235.571,273.064 234.405,271.731 233,270.5C 232.601,270.728 232.435,271.062 232.5,271.5C 228.546,269.957 227.879,267.623 230.5,264.5C 228.124,262.304 226.124,259.804 224.5,257C 224.611,255.278 225.111,255.112 226,256.5C 227.399,255.773 228.899,255.273 230.5,255C 229.978,254.439 229.645,253.772 229.5,253C 231.801,243.557 234.467,234.224 237.5,225C 236.978,224.439 236.645,223.772 236.5,223C 238.112,221.518 239.112,219.685 239.5,217.5C 241.143,217.48 242.476,218.147 243.5,219.5C 244.047,216.849 242.714,215.349 239.5,215C 240.451,214.282 240.617,213.449 240,212.5C 238.188,211.023 236.355,209.69 234.5,208.5 Z"/></g>
<g><path style="opacity:1" fill="#d15684" d="M 378.5,221.5 C 375.992,224.849 373.659,228.349 371.5,232C 369.884,232.615 368.551,233.615 367.5,235C 366.207,235.49 364.873,235.657 363.5,235.5C 368.474,230.861 373.474,226.195 378.5,221.5 Z"/></g>
<g><path style="opacity:1" fill="#7f4e7c" d="M 351.5,230.5 C 342.734,236.714 333.068,241.047 322.5,243.5C 322.899,239.884 323.899,236.55 325.5,233.5C 325.5,235.833 325.5,238.167 325.5,240.5C 326.791,240.737 327.791,240.404 328.5,239.5C 332.606,238.522 336.273,236.688 339.5,234C 343.438,232.526 347.438,231.359 351.5,230.5 Z"/></g>
<g><path style="opacity:1" fill="#0f7cbd" d="M 172.5,209.5 C 173.167,209.833 173.833,210.167 174.5,210.5C 175.246,214.285 176.413,217.952 178,221.5C 179.895,225.891 182.395,229.891 185.5,233.5C 186.566,235.701 187.233,238.035 187.5,240.5C 188.2,244.237 189.2,247.904 190.5,251.5C 188.731,249.612 187.398,247.279 186.5,244.5C 185.624,243.749 184.624,243.249 183.5,243C 184.28,241.927 184.113,240.76 183,239.5C 182.085,240.328 181.419,241.328 181,242.5C 178.664,241.708 178.164,240.375 179.5,238.5C 178.333,236.833 177.167,235.167 176,233.5C 174.936,236.237 173.436,238.737 171.5,241C 173.548,244.836 173.881,248.669 172.5,252.5C 171.871,249.603 170.871,246.936 169.5,244.5C 167.814,238.915 166.314,233.249 165,227.5C 164.617,228.056 164.117,228.389 163.5,228.5C 163.5,228.167 163.5,227.833 163.5,227.5C 163.034,225.799 163.034,224.299 163.5,223C 161.781,221.13 160.781,218.963 160.5,216.5C 161.265,217.66 162.265,218.66 163.5,219.5C 164.086,219.291 164.586,218.957 165,218.5C 165.827,219.662 166.66,220.829 167.5,222C 167.355,222.772 167.022,223.439 166.5,224C 168.075,223.621 169.575,223.788 171,224.5C 171.88,221.644 172.713,218.811 173.5,216C 173.212,213.813 172.878,211.646 172.5,209.5 Z"/></g>
<g><path style="opacity:0.992" fill="#df5f8b" d="M 393.5,226.5 C 391.442,232.954 388.109,238.621 383.5,243.5C 383.5,242.5 383.5,241.5 383.5,240.5C 385.841,236.98 388.007,233.313 390,229.5C 390.759,227.937 391.926,226.937 393.5,226.5 Z"/></g>
<g><path style="opacity:0.275" fill="#d6a5c7" d="M 254.5,238.5 C 255.833,239.167 256.833,240.167 257.5,241.5C 255.5,241.5 254.5,240.5 254.5,238.5 Z"/></g>
<g><path style="opacity:1" fill="#e70865" d="M 381.5,219.5 C 380.13,223.042 378.13,226.209 375.5,229C 376.608,231.112 378.108,232.946 380,234.5C 380.333,236.167 380.667,237.833 381,239.5C 381.671,240.252 382.504,240.586 383.5,240.5C 383.5,241.5 383.5,242.5 383.5,243.5C 381.5,246.167 379.167,248.5 376.5,250.5C 373.833,250.5 371.167,250.5 368.5,250.5C 368.421,251.93 368.754,253.264 369.5,254.5C 366.043,255.332 363.21,256.998 361,259.5C 359.113,259.031 357.613,258.031 356.5,256.5C 356.167,256.833 355.833,257.167 355.5,257.5C 357.04,258.532 357.54,259.865 357,261.5C 354.834,263.121 352.334,263.955 349.5,264C 348.748,264.671 348.414,265.504 348.5,266.5C 348.167,266.5 347.833,266.5 347.5,266.5C 345.571,266.769 343.905,266.269 342.5,265C 345.297,263.767 347.963,262.267 350.5,260.5C 348.034,259.877 345.701,259.043 343.5,258C 344.38,256.644 344.714,255.144 344.5,253.5C 346.861,253.326 349.194,252.993 351.5,252.5C 351.298,250.05 351.631,247.717 352.5,245.5C 358.094,244.237 361.761,240.904 363.5,235.5C 364.873,235.657 366.207,235.49 367.5,235C 368.551,233.615 369.884,232.615 371.5,232C 373.659,228.349 375.992,224.849 378.5,221.5C 379.5,220.833 380.5,220.167 381.5,219.5 Z"/></g>
<g><path style="opacity:0.62" fill="#d09ebf" d="M 257.5,241.5 C 259.754,242.124 261.421,243.457 262.5,245.5C 260.205,244.864 258.539,243.531 257.5,241.5 Z"/></g>
<g><path style="opacity:0.69" fill="#73a4c5" d="M 187.5,240.5 C 189.806,244.085 191.139,248.085 191.5,252.5C 190.833,252.5 190.5,252.167 190.5,251.5C 189.2,247.904 188.2,244.237 187.5,240.5 Z"/></g>
<g><path style="opacity:1" fill="#6b2d68" d="M 211.5,272.5 C 210.833,272.5 210.167,272.5 209.5,272.5C 205.926,263.198 203.759,253.532 203,243.5C 198.43,240.111 195.264,235.777 193.5,230.5C 194.117,230.389 194.617,230.056 195,229.5C 196.264,234.429 199.264,237.763 204,239.5C 204.683,242.383 205.85,245.05 207.5,247.5C 207.556,253.073 207.723,258.74 208,264.5C 210.534,266.569 211.701,269.235 211.5,272.5 Z"/></g>
<g><path style="opacity:0.957" fill="#b0779d" d="M 263.5,245.5 C 266.203,247.181 268.869,248.847 271.5,250.5C 267.138,251.328 264.471,249.661 263.5,245.5 Z"/></g>
<g><path style="opacity:0.788" fill="#cf7a9d" d="M 391.5,256.5 C 391.62,254.801 391.954,253.135 392.5,251.5C 392.124,249.197 391.124,248.863 389.5,250.5C 390.581,248.236 391.915,246.069 393.5,244C 394.6,243.568 395.267,244.068 395.5,245.5C 394.915,249.551 393.582,253.218 391.5,256.5 Z"/></g>
<g><path style="opacity:1" fill="#076db6" d="M 190.5,251.5 C 190.5,252.167 190.833,252.5 191.5,252.5C 192.167,256.833 192.833,261.167 193.5,265.5C 191.653,263.818 190.153,261.818 189,259.5C 187.396,260.649 185.73,260.649 184,259.5C 182.049,259.888 180.549,260.888 179.5,262.5C 177.604,263.466 175.604,263.799 173.5,263.5C 173.649,262.448 173.483,261.448 173,260.5C 172.506,262.134 172.34,263.801 172.5,265.5C 162.717,265.793 153.384,267.793 144.5,271.5C 143.575,270.359 142.741,270.359 142,271.5C 141.667,270.5 141.333,269.5 141,268.5C 140.02,269.981 138.853,271.315 137.5,272.5C 138.093,274.382 138.76,276.215 139.5,278C 138.833,278.333 138.167,278.667 137.5,279C 138.772,281.044 138.439,282.878 136.5,284.5C 135.117,281.924 134.283,282.258 134,285.5C 133.667,284.5 133.333,283.5 133,282.5C 133.017,287.294 131.85,291.627 129.5,295.5C 130.454,288.065 131.788,280.731 133.5,273.5C 134.151,272.909 134.818,272.243 135.5,271.5C 136.172,268.103 137.005,264.77 138,261.5C 137.926,254.245 139.092,247.245 141.5,240.5C 142.29,239.391 142.79,238.058 143,236.5C 143.471,238.246 144.138,239.913 145,241.5C 148.726,240.637 152.059,238.971 155,236.5C 157.108,239.79 159.441,240.123 162,237.5C 163.3,242.095 165.133,246.428 167.5,250.5C 168.588,251.934 169.922,252.934 171.5,253.5C 172.206,254.557 172.539,254.224 172.5,252.5C 173.881,248.669 173.548,244.836 171.5,241C 173.436,238.737 174.936,236.237 176,233.5C 177.167,235.167 178.333,236.833 179.5,238.5C 178.164,240.375 178.664,241.708 181,242.5C 181.419,241.328 182.085,240.328 183,239.5C 184.113,240.76 184.28,241.927 183.5,243C 184.624,243.249 185.624,243.749 186.5,244.5C 187.398,247.279 188.731,249.612 190.5,251.5 Z"/></g>
<g><path style="opacity:0.102" fill="#83c7ef" d="M 169.5,244.5 C 170.871,246.936 171.871,249.603 172.5,252.5C 172.539,254.224 172.206,254.557 171.5,253.5C 170.108,250.993 169.108,248.327 168.5,245.5C 169.167,245.5 169.5,245.167 169.5,244.5 Z"/></g>
<g><path style="opacity:0.576" fill="#dd8bb5" d="M 339.5,248.5 C 337.383,250.655 334.716,251.655 331.5,251.5C 333.936,250.129 336.603,249.129 339.5,248.5 Z"/></g>
<g><path style="opacity:0.49" fill="#dd9cc1" d="M 331.5,251.5 C 330.833,252.167 330.167,252.833 329.5,253.5C 323.9,254.686 318.233,255.353 312.5,255.5C 318.72,254.188 325.053,252.855 331.5,251.5 Z"/></g>
<g><path style="opacity:1" fill="#cf0265" d="M 352.5,245.5 C 351.631,247.717 351.298,250.05 351.5,252.5C 349.194,252.993 346.861,253.326 344.5,253.5C 344.714,255.144 344.38,256.644 343.5,258C 345.701,259.043 348.034,259.877 350.5,260.5C 347.963,262.267 345.297,263.767 342.5,265C 343.905,266.269 345.571,266.769 347.5,266.5C 343.099,267.967 338.766,269.634 334.5,271.5C 329.87,272.229 325.203,272.563 320.5,272.5C 320.586,271.504 320.252,270.671 319.5,270C 328.128,269.26 328.462,267.76 320.5,265.5C 322.188,262.299 321.188,260.133 317.5,259C 321.737,257.681 326.071,256.681 330.5,256C 338.049,252.533 345.382,249.033 352.5,245.5 Z"/></g>
<g><path style="opacity:0.078" fill="#f1c9e4" d="M 271.5,250.5 C 284.433,254.94 297.767,256.607 311.5,255.5C 299.513,257.122 287.513,256.456 275.5,253.5C 274.167,252.5 272.833,251.5 271.5,250.5 Z"/></g>
<g><path style="opacity:0.707" fill="#963268" d="M 275.5,253.5 C 287.513,256.456 299.513,257.122 311.5,255.5C 311.833,255.5 312.167,255.5 312.5,255.5C 318.233,255.353 323.9,254.686 329.5,253.5C 324.743,255.358 319.743,256.691 314.5,257.5C 312.167,257.5 309.833,257.5 307.5,257.5C 298.809,257.632 290.142,257.299 281.5,256.5C 279.181,256.008 277.181,255.008 275.5,253.5 Z"/></g>
<g><path style="opacity:1" fill="#a21967" d="M 281.5,256.5 C 290.142,257.299 298.809,257.632 307.5,257.5C 303.786,259.34 299.786,260.673 295.5,261.5C 294.45,263.102 295.117,263.935 297.5,264C 294.223,265.143 290.89,265.977 287.5,266.5C 287.5,267.5 287.5,268.5 287.5,269.5C 290.825,269.494 293.159,270.994 294.5,274C 302.827,274.5 311.16,274.666 319.5,274.5C 318.167,275.167 316.833,275.833 315.5,276.5C 301.845,278.225 288.511,277.225 275.5,273.5C 273.485,272.076 271.152,271.41 268.5,271.5C 266.035,271.233 263.701,270.566 261.5,269.5C 260.833,268.833 260.167,268.167 259.5,267.5C 258.697,266.577 258.53,265.577 259,264.5C 260,264.167 261,263.833 262,263.5C 265.649,267.538 270.149,269.038 275.5,268C 272.833,267.333 272.833,266.667 275.5,266C 274.833,265.667 274.167,265.333 273.5,265C 276.54,262.481 279.873,260.481 283.5,259C 282.619,258.292 281.953,257.458 281.5,256.5 Z"/></g>
<g><path style="opacity:1" fill="#c11967" d="M 363.5,235.5 C 361.761,240.904 358.094,244.237 352.5,245.5C 345.382,249.033 338.049,252.533 330.5,256C 326.071,256.681 321.737,257.681 317.5,259C 321.188,260.133 322.188,262.299 320.5,265.5C 328.462,267.76 328.128,269.26 319.5,270C 320.252,270.671 320.586,271.504 320.5,272.5C 316.49,273.836 312.49,273.67 308.5,272C 310.623,270.806 312.957,270.14 315.5,270C 313.167,269.667 310.833,269.333 308.5,269C 312.31,267.87 315.643,265.87 318.5,263C 316.517,261.111 314.184,259.778 311.5,259C 312.737,258.768 313.737,258.268 314.5,257.5C 319.743,256.691 324.743,255.358 329.5,253.5C 330.167,252.833 330.833,252.167 331.5,251.5C 334.716,251.655 337.383,250.655 339.5,248.5C 347.78,244.693 355.78,240.36 363.5,235.5 Z"/></g>
<g><path style="opacity:0.996" fill="#da5582" d="M 391.5,256.5 C 389.073,263.907 385.073,270.24 379.5,275.5C 379.34,273.801 379.506,272.134 380,270.5C 382.308,269.359 384.141,267.692 385.5,265.5C 386.506,262.232 388.006,259.232 390,256.5C 390.667,255.5 390.667,254.5 390,253.5C 384.076,259.428 377.576,264.594 370.5,269C 368.482,269.505 366.482,270.005 364.5,270.5C 373.386,264.624 381.719,257.957 389.5,250.5C 391.124,248.863 392.124,249.197 392.5,251.5C 391.954,253.135 391.62,254.801 391.5,256.5 Z"/></g>
<g><path style="opacity:1" fill="#d33d74" d="M 376.5,250.5 C 369.284,257.606 360.951,262.94 351.5,266.5C 350.5,266.5 349.5,266.5 348.5,266.5C 348.414,265.504 348.748,264.671 349.5,264C 352.334,263.955 354.834,263.121 357,261.5C 357.54,259.865 357.04,258.532 355.5,257.5C 355.833,257.167 356.167,256.833 356.5,256.5C 357.613,258.031 359.113,259.031 361,259.5C 363.21,256.998 366.043,255.332 369.5,254.5C 368.754,253.264 368.421,251.93 368.5,250.5C 371.167,250.5 373.833,250.5 376.5,250.5 Z"/></g>
<g><path style="opacity:1" fill="#085aa8" d="M 193.5,265.5 C 195.167,269.5 196.833,273.5 198.5,277.5C 197.542,277.047 196.708,276.381 196,275.5C 194.602,276.051 193.268,276.384 192,276.5C 191.077,275.241 190.243,273.908 189.5,272.5C 181.809,277.119 173.475,279.619 164.5,280C 162.611,282.194 160.444,282.694 158,281.5C 154.166,282.982 150.332,284.649 146.5,286.5C 144.267,286.136 142.434,285.136 141,283.5C 140.167,284.333 139.333,285.167 138.5,286C 140.478,288.497 140.978,291.331 140,294.5C 139.5,295.667 138.667,296.5 137.5,297C 138.406,298.699 138.739,300.533 138.5,302.5C 137.504,302.414 136.671,302.748 136,303.5C 135.798,305.256 135.298,306.922 134.5,308.5C 134.167,307.667 133.833,306.833 133.5,306C 134.937,300.42 136.27,295.087 137.5,290C 136.968,287.98 135.635,287.147 133.5,287.5C 132.649,293.569 131.149,299.569 129,305.5C 128.777,310.25 128.277,314.916 127.5,319.5C 126.833,319.833 126.167,320.167 125.5,320.5C 126.51,312.107 127.843,303.774 129.5,295.5C 131.85,291.627 133.017,287.294 133,282.5C 133.333,283.5 133.667,284.5 134,285.5C 134.283,282.258 135.117,281.924 136.5,284.5C 138.439,282.878 138.772,281.044 137.5,279C 138.167,278.667 138.833,278.333 139.5,278C 138.76,276.215 138.093,274.382 137.5,272.5C 138.853,271.315 140.02,269.981 141,268.5C 141.333,269.5 141.667,270.5 142,271.5C 142.741,270.359 143.575,270.359 144.5,271.5C 153.384,267.793 162.717,265.793 172.5,265.5C 172.34,263.801 172.506,262.134 173,260.5C 173.483,261.448 173.649,262.448 173.5,263.5C 175.604,263.799 177.604,263.466 179.5,262.5C 180.549,260.888 182.049,259.888 184,259.5C 185.73,260.649 187.396,260.649 189,259.5C 190.153,261.818 191.653,263.818 193.5,265.5 Z"/></g>
<g><path style="opacity:1" fill="#b10265" d="M 307.5,257.5 C 309.833,257.5 312.167,257.5 314.5,257.5C 313.737,258.268 312.737,258.768 311.5,259C 314.184,259.778 316.517,261.111 318.5,263C 315.643,265.87 312.31,267.87 308.5,269C 310.833,269.333 313.167,269.667 315.5,270C 312.957,270.14 310.623,270.806 308.5,272C 312.49,273.67 316.49,273.836 320.5,272.5C 325.203,272.563 329.87,272.229 334.5,271.5C 329.704,273.037 324.704,274.037 319.5,274.5C 311.16,274.666 302.827,274.5 294.5,274C 293.159,270.994 290.825,269.494 287.5,269.5C 287.5,268.5 287.5,267.5 287.5,266.5C 290.89,265.977 294.223,265.143 297.5,264C 295.117,263.935 294.45,263.102 295.5,261.5C 299.786,260.673 303.786,259.34 307.5,257.5 Z"/></g>
<g><path style="opacity:0.133" fill="#f6bee7" d="M 259.5,267.5 C 260.167,268.167 260.833,268.833 261.5,269.5C 261.5,270.167 261.5,270.833 261.5,271.5C 260.038,270.542 258.705,269.376 257.5,268C 258.094,267.536 258.761,267.369 259.5,267.5 Z"/></g>
<g><path style="opacity:0.89" fill="#c75e8d" d="M 347.5,266.5 C 347.833,266.5 348.167,266.5 348.5,266.5C 349.5,266.5 350.5,266.5 351.5,266.5C 340.337,272.437 328.337,275.771 315.5,276.5C 316.833,275.833 318.167,275.167 319.5,274.5C 324.704,274.037 329.704,273.037 334.5,271.5C 338.766,269.634 343.099,267.967 347.5,266.5 Z"/></g>
<g><path style="opacity:0.573" fill="#bc7da1" d="M 268.5,271.5 C 271.152,271.41 273.485,272.076 275.5,273.5C 272.848,273.59 270.515,272.924 268.5,271.5 Z"/></g>
<g><path style="opacity:0.086" fill="#d588d0" d="M 236.5,274.5 C 236.5,274.833 236.5,275.167 236.5,275.5C 236.167,275.5 235.833,275.5 235.5,275.5C 234.833,275.167 234.167,274.833 233.5,274.5C 233.443,273.391 233.11,272.391 232.5,271.5C 232.435,271.062 232.601,270.728 233,270.5C 234.405,271.731 235.571,273.064 236.5,274.5 Z"/></g>
<g><path style="opacity:0.361" fill="#ea80a8" d="M 364.5,270.5 C 363.514,272.408 361.848,273.408 359.5,273.5C 360.659,271.75 362.326,270.75 364.5,270.5 Z"/></g>
<g><path style="opacity:1" fill="#a25684" d="M 261.5,271.5 C 264.526,274.195 267.526,276.862 270.5,279.5C 267.659,278.776 264.992,277.61 262.5,276C 261.62,274.644 261.286,273.144 261.5,271.5 Z"/></g>
<g><path style="opacity:1" fill="#ee0764" d="M 379.5,275.5 C 376.831,277.133 373.831,278.3 370.5,279C 371.337,280.011 371.67,281.178 371.5,282.5C 369.186,283.682 366.852,285.015 364.5,286.5C 363.873,287.417 363.539,288.417 363.5,289.5C 360.986,289.754 358.652,290.587 356.5,292C 355.748,292.671 355.414,293.504 355.5,294.5C 352.436,294.928 349.436,295.594 346.5,296.5C 345.127,296.657 343.793,296.49 342.5,296C 343.424,295.15 343.424,294.15 342.5,293C 343.619,291.124 345.286,290.291 347.5,290.5C 347.5,288.833 347.5,287.167 347.5,285.5C 345.708,285.634 344.042,285.301 342.5,284.5C 344.858,282.871 347.524,281.705 350.5,281C 354.012,278.939 357.012,276.439 359.5,273.5C 361.848,273.408 363.514,272.408 364.5,270.5C 366.482,270.005 368.482,269.505 370.5,269C 377.576,264.594 384.076,259.428 390,253.5C 390.667,254.5 390.667,255.5 390,256.5C 388.006,259.232 386.506,262.232 385.5,265.5C 384.141,267.692 382.308,269.359 380,270.5C 379.506,272.134 379.34,273.801 379.5,275.5 Z"/></g>
<g><path style="opacity:0.91" fill="#8f5c8a" d="M 209.5,272.5 C 210.167,272.5 210.833,272.5 211.5,272.5C 211.5,273.167 211.5,273.833 211.5,274.5C 213.249,277.556 214.249,280.889 214.5,284.5C 212.321,280.797 210.655,276.797 209.5,272.5 Z"/></g>
<g><path style="opacity:1" fill="#de5d87" d="M 379.5,275.5 C 378.118,278.394 376.118,280.894 373.5,283C 370.536,285.81 367.202,287.976 363.5,289.5C 363.539,288.417 363.873,287.417 364.5,286.5C 366.852,285.015 369.186,283.682 371.5,282.5C 371.67,281.178 371.337,280.011 370.5,279C 373.831,278.3 376.831,277.133 379.5,275.5 Z"/></g>
<g><path style="opacity:1" fill="#3d649a" d="M 191.5,252.5 C 196.558,266.995 202.225,281.329 208.5,295.5C 207.603,294.402 206.77,294.402 206,295.5C 204.734,292.534 203.567,289.534 202.5,286.5C 201.817,286.137 201.15,285.804 200.5,285.5C 199.629,282.888 198.963,280.221 198.5,277.5C 196.833,273.5 195.167,269.5 193.5,265.5C 192.833,261.167 192.167,256.833 191.5,252.5 Z"/></g>
<g><path style="opacity:1" fill="#004fa2" d="M 198.5,277.5 C 198.963,280.221 199.629,282.888 200.5,285.5C 200.565,285.938 200.399,286.272 200,286.5C 199.667,285.833 199.333,285.167 199,284.5C 192.505,291.724 184.339,294.724 174.5,293.5C 171.79,294.713 169.124,296.046 166.5,297.5C 164.401,295.466 162.068,295.132 159.5,296.5C 154.73,298.372 150.063,300.538 145.5,303C 144.213,304.41 143.046,305.91 142,307.5C 141.667,306.167 141.333,304.833 141,303.5C 140.329,302.748 139.496,302.414 138.5,302.5C 138.739,300.533 138.406,298.699 137.5,297C 138.667,296.5 139.5,295.667 140,294.5C 140.978,291.331 140.478,288.497 138.5,286C 139.333,285.167 140.167,284.333 141,283.5C 142.434,285.136 144.267,286.136 146.5,286.5C 150.332,284.649 154.166,282.982 158,281.5C 160.444,282.694 162.611,282.194 164.5,280C 173.475,279.619 181.809,277.119 189.5,272.5C 190.243,273.908 191.077,275.241 192,276.5C 193.268,276.384 194.602,276.051 196,275.5C 196.708,276.381 197.542,277.047 198.5,277.5 Z"/></g>
<g><path style="opacity:0.439" fill="#dc7ea7" d="M 341.5,281.5 C 339.485,282.924 337.152,283.59 334.5,283.5C 336.515,282.076 338.848,281.41 341.5,281.5 Z"/></g>
<g><path style="opacity:1" fill="#7a2065" d="M 233.5,274.5 C 234.167,274.833 234.833,275.167 235.5,275.5C 235.5,276.167 235.833,276.5 236.5,276.5C 236.5,276.833 236.5,277.167 236.5,277.5C 236.716,279.681 235.883,281.347 234,282.5C 232.691,279.949 230.857,277.949 228.5,276.5C 226.108,273.402 223.942,270.069 222,266.5C 221.346,265.304 220.846,265.304 220.5,266.5C 226.57,279.893 235.237,291.226 246.5,300.5C 243.25,299.461 239.584,298.461 235.5,297.5C 232.162,292.895 228.329,288.562 224,284.5C 223.505,282.527 223.338,280.527 223.5,278.5C 220.756,278.2 219.089,279.367 218.5,282C 219.071,284.544 219.738,287.044 220.5,289.5C 218.482,288.141 216.482,286.807 214.5,285.5C 214.5,285.167 214.5,284.833 214.5,284.5C 214.249,280.889 213.249,277.556 211.5,274.5C 212.397,275.598 213.23,275.598 214,274.5C 215.661,278.517 216.828,278.35 217.5,274C 215.787,267.939 214.787,261.772 214.5,255.5C 216.792,255.244 218.959,255.577 221,256.5C 222.103,260.178 223.27,263.845 224.5,267.5C 226.65,270.151 228.983,272.651 231.5,275C 232.437,275.692 233.103,275.525 233.5,274.5 Z"/></g>
<g><path style="opacity:1" fill="#930366" d="M 275.5,253.5 C 277.181,255.008 279.181,256.008 281.5,256.5C 281.953,257.458 282.619,258.292 283.5,259C 279.873,260.481 276.54,262.481 273.5,265C 274.167,265.333 274.833,265.667 275.5,266C 272.833,266.667 272.833,267.333 275.5,268C 270.149,269.038 265.649,267.538 262,263.5C 261,263.833 260,264.167 259,264.5C 258.53,265.577 258.697,266.577 259.5,267.5C 258.761,267.369 258.094,267.536 257.5,268C 258.705,269.376 260.038,270.542 261.5,271.5C 261.286,273.144 261.62,274.644 262.5,276C 264.992,277.61 267.659,278.776 270.5,279.5C 270.833,279.5 271.167,279.5 271.5,279.5C 271.527,281.199 272.194,282.533 273.5,283.5C 269.665,284.004 269.665,285.004 273.5,286.5C 271.376,287.149 269.376,287.983 267.5,289C 268.108,289.87 268.941,290.37 270,290.5C 273.213,288.846 276.046,289.179 278.5,291.5C 276.517,293.024 274.184,294.024 271.5,294.5C 271.137,295.183 270.804,295.85 270.5,296.5C 263.88,294.248 257.546,291.415 251.5,288C 252.711,287.107 252.711,286.274 251.5,285.5C 249.786,286.609 249.119,285.942 249.5,283.5C 248.167,283.5 246.833,283.5 245.5,283.5C 245.608,281.486 244.942,279.82 243.5,278.5C 247.772,280.065 251.772,279.565 255.5,277C 254.692,275.294 253.359,274.461 251.5,274.5C 251.5,273.5 251.5,272.5 251.5,271.5C 249.387,270.744 247.387,270.577 245.5,271C 246.971,268.757 247.971,266.257 248.5,263.5C 250.321,261.757 252.321,260.257 254.5,259C 254.167,258.667 253.833,258.333 253.5,258C 255.131,256.164 255.798,256.664 255.5,259.5C 256.675,259.719 257.675,259.386 258.5,258.5C 257.923,256.45 256.59,255.45 254.5,255.5C 254.433,252.234 256.099,250.734 259.5,251C 259.473,249.474 258.973,247.974 258,246.5C 263.042,250.597 268.876,252.931 275.5,253.5 Z"/></g>
<g><path style="opacity:0.925" fill="#884b75" d="M 228.5,276.5 C 230.857,277.949 232.691,279.949 234,282.5C 235.883,281.347 236.716,279.681 236.5,277.5C 236.833,277.5 237.167,277.5 237.5,277.5C 238.5,277.5 239.5,277.5 240.5,277.5C 240.5,278.5 240.5,279.5 240.5,280.5C 238.895,279.031 238.395,279.365 239,281.5C 241.95,286.118 245.284,290.452 249,294.5C 249.688,295.332 249.521,295.998 248.5,296.5C 240.145,291.479 233.479,284.812 228.5,276.5 Z"/></g>
<g><path style="opacity:0.745" fill="#b35382" d="M 271.5,279.5 C 284.585,286.492 298.585,288.992 313.5,287C 320.567,286.153 327.567,284.986 334.5,283.5C 334.119,284.931 333.119,285.764 331.5,286C 323.925,287.582 316.258,288.749 308.5,289.5C 296.04,290.37 284.374,288.37 273.5,283.5C 272.194,282.533 271.527,281.199 271.5,279.5 Z"/></g>
<g><path style="opacity:0.804" fill="#d56492" d="M 363.5,289.5 C 361.178,291.664 358.511,293.331 355.5,294.5C 355.414,293.504 355.748,292.671 356.5,292C 358.652,290.587 360.986,289.754 363.5,289.5 Z"/></g>
<g><path style="opacity:0.902" fill="#884b75" d="M 214.5,285.5 C 216.482,286.807 218.482,288.141 220.5,289.5C 220.433,290.959 220.766,292.292 221.5,293.5C 221.833,294.833 222.167,296.167 222.5,297.5C 219.35,293.881 216.684,289.881 214.5,285.5 Z"/></g>
<g><path style="opacity:1" fill="#a81c68" d="M 273.5,283.5 C 284.374,288.37 296.04,290.37 308.5,289.5C 304.353,290.325 300.019,290.825 295.5,291C 298.042,292.77 300.709,294.27 303.5,295.5C 303.291,296.086 302.957,296.586 302.5,297C 299.774,297.182 297.107,297.682 294.5,298.5C 296.696,300.532 299.029,302.365 301.5,304C 307.491,304.499 313.491,304.666 319.5,304.5C 319.5,304.833 319.5,305.167 319.5,305.5C 310.912,306.636 302.245,306.802 293.5,306C 289.608,305.581 285.942,304.748 282.5,303.5C 278.811,302.041 275.144,300.374 271.5,298.5C 271.137,297.817 270.804,297.15 270.5,296.5C 270.804,295.85 271.137,295.183 271.5,294.5C 274.184,294.024 276.517,293.024 278.5,291.5C 276.046,289.179 273.213,288.846 270,290.5C 268.941,290.37 268.108,289.87 267.5,289C 269.376,287.983 271.376,287.149 273.5,286.5C 269.665,285.004 269.665,284.004 273.5,283.5 Z"/></g>
<g><path style="opacity:1" fill="#c10965" d="M 359.5,273.5 C 357.012,276.439 354.012,278.939 350.5,281C 347.524,281.705 344.858,282.871 342.5,284.5C 336.761,285.867 331.094,287.533 325.5,289.5C 324.998,290.716 324.665,291.883 324.5,293C 322.866,293.494 321.199,293.66 319.5,293.5C 319.261,295.467 319.594,297.301 320.5,299C 325.793,299.977 331.126,300.477 336.5,300.5C 330.781,301.402 325.114,302.735 319.5,304.5C 313.491,304.666 307.491,304.499 301.5,304C 299.029,302.365 296.696,300.532 294.5,298.5C 297.107,297.682 299.774,297.182 302.5,297C 302.957,296.586 303.291,296.086 303.5,295.5C 300.709,294.27 298.042,292.77 295.5,291C 300.019,290.825 304.353,290.325 308.5,289.5C 316.258,288.749 323.925,287.582 331.5,286C 333.119,285.764 334.119,284.931 334.5,283.5C 337.152,283.59 339.485,282.924 341.5,281.5C 347.196,278.322 353.196,275.656 359.5,273.5 Z"/></g>
<g><path style="opacity:1" fill="#d70366" d="M 342.5,284.5 C 344.042,285.301 345.708,285.634 347.5,285.5C 347.5,287.167 347.5,288.833 347.5,290.5C 345.286,290.291 343.619,291.124 342.5,293C 343.424,294.15 343.424,295.15 342.5,296C 343.793,296.49 345.127,296.657 346.5,296.5C 346.5,297.167 346.5,297.833 346.5,298.5C 342.84,298.159 339.507,298.825 336.5,300.5C 331.126,300.477 325.793,299.977 320.5,299C 319.594,297.301 319.261,295.467 319.5,293.5C 321.199,293.66 322.866,293.494 324.5,293C 324.665,291.883 324.998,290.716 325.5,289.5C 331.094,287.533 336.761,285.867 342.5,284.5 Z"/></g>
<g><path style="opacity:1" fill="#90326c" d="M 243.5,278.5 C 244.942,279.82 245.608,281.486 245.5,283.5C 246.833,283.5 248.167,283.5 249.5,283.5C 249.119,285.942 249.786,286.609 251.5,285.5C 252.711,286.274 252.711,287.107 251.5,288C 257.546,291.415 263.88,294.248 270.5,296.5C 270.804,297.15 271.137,297.817 271.5,298.5C 275.144,300.374 278.811,302.041 282.5,303.5C 265.823,300.499 251.823,292.832 240.5,280.5C 240.5,279.5 240.5,278.5 240.5,277.5C 239.5,277.5 238.5,277.5 237.5,277.5C 237.5,276.833 237.167,276.5 236.5,276.5C 236.5,276.167 236.5,275.833 236.5,275.5C 236.5,275.167 236.5,274.833 236.5,274.5C 236.435,274.062 236.601,273.728 237,273.5C 238.101,275.394 239.434,276.061 241,275.5C 241.377,276.942 242.21,277.942 243.5,278.5 Z"/></g>
<g><path style="opacity:0.812" fill="#dd779f" d="M 355.5,294.5 C 352.912,296.625 349.912,297.958 346.5,298.5C 346.5,297.833 346.5,297.167 346.5,296.5C 349.436,295.594 352.436,294.928 355.5,294.5 Z"/></g>
<g><path style="opacity:1" fill="#024399" d="M 200.5,285.5 C 201.15,285.804 201.817,286.137 202.5,286.5C 203.567,289.534 204.734,292.534 206,295.5C 206.77,294.402 207.603,294.402 208.5,295.5C 208.5,296.833 208.5,298.167 208.5,299.5C 207.542,299.047 206.708,298.381 206,297.5C 205.056,300.347 205.556,302.847 207.5,305C 202.415,304.456 197.415,305.123 192.5,307C 187.167,307.333 181.833,307.667 176.5,308C 174.382,308.26 172.716,309.26 171.5,311C 167.833,311.333 164.167,311.667 160.5,312C 160.957,312.414 161.291,312.914 161.5,313.5C 158.917,315.88 156.417,315.88 154,313.5C 150.539,314.566 147.206,315.899 144,317.5C 142.187,316.391 141.354,317.058 141.5,319.5C 139.173,319.247 137.173,319.914 135.5,321.5C 133.931,320.286 133.098,318.619 133,316.5C 132.581,317.672 131.915,318.672 131,319.5C 130.394,316.924 130.894,314.59 132.5,312.5C 132.101,310.803 131.601,309.137 131,307.5C 129.97,311.773 129.303,316.106 129,320.5C 127.893,321.712 127.393,321.379 127.5,319.5C 128.277,314.916 128.777,310.25 129,305.5C 131.149,299.569 132.649,293.569 133.5,287.5C 135.635,287.147 136.968,287.98 137.5,290C 136.27,295.087 134.937,300.42 133.5,306C 133.833,306.833 134.167,307.667 134.5,308.5C 135.298,306.922 135.798,305.256 136,303.5C 136.671,302.748 137.504,302.414 138.5,302.5C 139.496,302.414 140.329,302.748 141,303.5C 141.333,304.833 141.667,306.167 142,307.5C 143.046,305.91 144.213,304.41 145.5,303C 150.063,300.538 154.73,298.372 159.5,296.5C 162.068,295.132 164.401,295.466 166.5,297.5C 169.124,296.046 171.79,294.713 174.5,293.5C 184.339,294.724 192.505,291.724 199,284.5C 199.333,285.167 199.667,285.833 200,286.5C 200.399,286.272 200.565,285.938 200.5,285.5 Z"/></g>
<g><path style="opacity:1" fill="#7c0369" d="M 235.5,297.5 C 234.213,299.716 234.546,301.882 236.5,304C 235.586,306.873 234.086,307.04 232,304.5C 230.354,302.945 230.021,301.279 231,299.5C 230.667,299.833 230.333,300.167 230,300.5C 228.575,296.513 225.741,294.18 221.5,293.5C 220.766,292.292 220.433,290.959 220.5,289.5C 219.738,287.044 219.071,284.544 218.5,282C 219.089,279.367 220.756,278.2 223.5,278.5C 223.338,280.527 223.505,282.527 224,284.5C 228.329,288.562 232.162,292.895 235.5,297.5 Z"/></g>
<g><path style="opacity:1" fill="#863e71" d="M 222.5,297.5 C 227.453,298.715 230.453,302.382 231.5,308.5C 228.152,305.149 225.152,301.482 222.5,297.5 Z"/></g>
<g><path style="opacity:0.208" fill="#8a9ebc" d="M 211.5,300.5 C 212.906,300.973 213.573,301.973 213.5,303.5C 212.094,303.027 211.427,302.027 211.5,300.5 Z"/></g>
<g><path style="opacity:0.878" fill="#d46692" d="M 346.5,298.5 C 338.052,302.53 329.052,304.863 319.5,305.5C 319.5,305.167 319.5,304.833 319.5,304.5C 325.114,302.735 330.781,301.402 336.5,300.5C 339.507,298.825 342.84,298.159 346.5,298.5 Z"/></g>
<g><path style="opacity:1" fill="#8c1266" d="M 221.5,293.5 C 225.741,294.18 228.575,296.513 230,300.5C 230.333,300.167 230.667,299.833 231,299.5C 230.021,301.279 230.354,302.945 232,304.5C 234.086,307.04 235.586,306.873 236.5,304C 234.546,301.882 234.213,299.716 235.5,297.5C 239.584,298.461 243.25,299.461 246.5,300.5C 247.252,302.1 248.252,303.6 249.5,305C 249.167,305.333 248.833,305.667 248.5,306C 251.241,307.501 253.908,309.001 256.5,310.5C 255.322,313.477 255.322,316.477 256.5,319.5C 255.5,319.5 254.5,319.5 253.5,319.5C 253.5,320.5 253.5,321.5 253.5,322.5C 257.492,323.162 260.825,324.829 263.5,327.5C 251.25,323.713 240.583,317.38 231.5,308.5C 230.453,302.382 227.453,298.715 222.5,297.5C 222.167,296.167 221.833,294.833 221.5,293.5 Z"/></g>
<g><path style="opacity:0.851" fill="#ca7394" d="M 357.5,308.5 C 357.719,307.325 357.386,306.325 356.5,305.5C 355.583,306.127 354.583,306.461 353.5,306.5C 357.485,303.363 361.652,300.363 366,297.5C 364.614,302.081 361.78,305.747 357.5,308.5 Z"/></g>
<g><path style="opacity:1" fill="#023b93" d="M 208.5,299.5 C 209.167,301.167 209.833,302.833 210.5,304.5C 209.522,304.811 208.855,305.478 208.5,306.5C 209.485,308.098 209.651,309.765 209,311.5C 207.991,310.342 206.658,309.675 205,309.5C 196.227,311.413 187.394,313.413 178.5,315.5C 177.558,315.392 176.725,315.059 176,314.5C 173.949,316.524 171.616,318.19 169,319.5C 162.902,319.661 156.402,320.661 149.5,322.5C 146.774,320.859 144.774,321.526 143.5,324.5C 140.634,325.208 137.8,325.875 135,326.5C 133.413,325.273 132.079,325.606 131,327.5C 128.688,324.898 126.855,325.232 125.5,328.5C 125.5,325.833 125.5,323.167 125.5,320.5C 126.167,320.167 126.833,319.833 127.5,319.5C 127.393,321.379 127.893,321.712 129,320.5C 129.303,316.106 129.97,311.773 131,307.5C 131.601,309.137 132.101,310.803 132.5,312.5C 130.894,314.59 130.394,316.924 131,319.5C 131.915,318.672 132.581,317.672 133,316.5C 133.098,318.619 133.931,320.286 135.5,321.5C 137.173,319.914 139.173,319.247 141.5,319.5C 141.354,317.058 142.187,316.391 144,317.5C 147.206,315.899 150.539,314.566 154,313.5C 156.417,315.88 158.917,315.88 161.5,313.5C 161.291,312.914 160.957,312.414 160.5,312C 164.167,311.667 167.833,311.333 171.5,311C 172.716,309.26 174.382,308.26 176.5,308C 181.833,307.667 187.167,307.333 192.5,307C 197.415,305.123 202.415,304.456 207.5,305C 205.556,302.847 205.056,300.347 206,297.5C 206.708,298.381 207.542,299.047 208.5,299.5 Z"/></g>
<g><path style="opacity:1" fill="#983e73" d="M 246.5,300.5 C 254.04,305.102 261.706,309.435 269.5,313.5C 264.962,313.282 260.629,312.282 256.5,310.5C 253.908,309.001 251.241,307.501 248.5,306C 248.833,305.667 249.167,305.333 249.5,305C 248.252,303.6 247.252,302.1 246.5,300.5 Z"/></g>
<g><path style="opacity:1" fill="#cf4776" d="M 357.5,308.5 C 352.316,312.925 346.649,316.591 340.5,319.5C 342.397,317.096 344.731,315.096 347.5,313.5C 347,313.167 346.5,312.833 346,312.5C 341.693,314.437 337.193,315.437 332.5,315.5C 339.548,312.815 346.548,309.815 353.5,306.5C 354.583,306.461 355.583,306.127 356.5,305.5C 357.386,306.325 357.719,307.325 357.5,308.5 Z"/></g>
<g><path style="opacity:1" fill="#304386" d="M 208.5,295.5 C 210.25,296.659 211.25,298.326 211.5,300.5C 211.427,302.027 212.094,303.027 213.5,303.5C 220.167,312.167 227.833,319.833 236.5,326.5C 235.833,326.833 235.167,327.167 234.5,327.5C 230.122,324.972 226.122,321.805 222.5,318C 221.451,317.508 220.451,317.674 219.5,318.5C 216.95,313.364 213.95,308.697 210.5,304.5C 209.833,302.833 209.167,301.167 208.5,299.5C 208.5,298.167 208.5,296.833 208.5,295.5 Z"/></g>
<g><path style="opacity:1" fill="#9f0f65" d="M 256.5,310.5 C 260.629,312.282 264.962,313.282 269.5,313.5C 272.152,313.41 274.485,314.076 276.5,315.5C 280.509,317.421 284.843,318.588 289.5,319C 296.492,319.5 303.492,319.666 310.5,319.5C 298.995,320.335 287.328,320.501 275.5,320C 274.241,320.923 272.908,321.757 271.5,322.5C 273.463,325.788 276.13,328.122 279.5,329.5C 274.257,328.19 268.923,327.524 263.5,327.5C 260.825,324.829 257.492,323.162 253.5,322.5C 253.5,321.5 253.5,320.5 253.5,319.5C 254.5,319.5 255.5,319.5 256.5,319.5C 255.322,316.477 255.322,313.477 256.5,310.5 Z"/></g>
<g><path style="opacity:0.176" fill="#e6add2" d="M 276.5,315.5 C 289.021,318.06 301.688,319.06 314.5,318.5C 313.432,319.434 312.099,319.768 310.5,319.5C 303.492,319.666 296.492,319.5 289.5,319C 284.843,318.588 280.509,317.421 276.5,315.5 Z"/></g>
<g><path style="opacity:1" fill="#cf0b62" d="M 340.5,319.5 C 333.378,321.896 326.378,324.563 319.5,327.5C 315.818,327.665 312.152,327.499 308.5,327C 308.043,326.586 307.709,326.086 307.5,325.5C 308.167,325.167 308.833,324.833 309.5,324.5C 305.7,323.766 302.034,323.766 298.5,324.5C 297.304,324.154 297.304,323.654 298.5,323C 307.951,322.517 317.285,321.184 326.5,319C 328.91,318.4 330.91,317.234 332.5,315.5C 337.193,315.437 341.693,314.437 346,312.5C 346.5,312.833 347,313.167 347.5,313.5C 344.731,315.096 342.397,317.096 340.5,319.5 Z"/></g>
<g><path style="opacity:1" fill="#012f8a" d="M 210.5,304.5 C 213.95,308.697 216.95,313.364 219.5,318.5C 220.451,317.674 221.451,317.508 222.5,318C 226.122,321.805 230.122,324.972 234.5,327.5C 231.386,326.072 228.219,324.739 225,323.5C 224.167,325.5 223.333,327.5 222.5,329.5C 211.777,327.528 201.11,327.362 190.5,329C 188.238,329.642 186.071,330.475 184,331.5C 183.692,330.692 183.192,330.025 182.5,329.5C 181.335,330.491 180.168,331.491 179,332.5C 174.63,330.742 171.963,331.742 171,335.5C 166.535,335.686 162.035,335.686 157.5,335.5C 156.5,336 155.5,336.5 154.5,337C 154.833,337.333 155.167,337.667 155.5,338C 146.668,340.245 137.668,341.578 128.5,342C 127.874,342.75 127.374,343.584 127,344.5C 125.714,340.402 125.214,336.402 125.5,332.5C 125.5,331.167 125.5,329.833 125.5,328.5C 126.855,325.232 128.688,324.898 131,327.5C 132.079,325.606 133.413,325.273 135,326.5C 137.8,325.875 140.634,325.208 143.5,324.5C 144.774,321.526 146.774,320.859 149.5,322.5C 156.402,320.661 162.902,319.661 169,319.5C 171.616,318.19 173.949,316.524 176,314.5C 176.725,315.059 177.558,315.392 178.5,315.5C 187.394,313.413 196.227,311.413 205,309.5C 206.658,309.675 207.991,310.342 209,311.5C 209.651,309.765 209.485,308.098 208.5,306.5C 208.855,305.478 209.522,304.811 210.5,304.5 Z"/></g>
<g><path style="opacity:1" fill="#b60f65" d="M 332.5,315.5 C 330.91,317.234 328.91,318.4 326.5,319C 317.285,321.184 307.951,322.517 298.5,323C 297.304,323.654 297.304,324.154 298.5,324.5C 302.034,323.766 305.7,323.766 309.5,324.5C 308.833,324.833 308.167,325.167 307.5,325.5C 307.709,326.086 308.043,326.586 308.5,327C 312.152,327.499 315.818,327.665 319.5,327.5C 319.5,327.833 319.5,328.167 319.5,328.5C 319.167,328.5 318.833,328.5 318.5,328.5C 305.382,330.424 292.382,330.757 279.5,329.5C 276.13,328.122 273.463,325.788 271.5,322.5C 272.908,321.757 274.241,320.923 275.5,320C 287.328,320.501 298.995,320.335 310.5,319.5C 312.099,319.768 313.432,319.434 314.5,318.5C 320.54,317.715 326.54,316.715 332.5,315.5 Z"/></g>
<g><path style="opacity:0.788" fill="#c64d7d" d="M 340.5,319.5 C 333.987,323.455 326.987,326.455 319.5,328.5C 319.5,328.167 319.5,327.833 319.5,327.5C 326.378,324.563 333.378,321.896 340.5,319.5 Z"/></g>
<g><path style="opacity:0.763" fill="#af4e7d" d="M 263.5,327.5 C 268.923,327.524 274.257,328.19 279.5,329.5C 292.382,330.757 305.382,330.424 318.5,328.5C 304.178,332.744 289.512,333.577 274.5,331C 270.573,330.276 266.906,329.109 263.5,327.5 Z"/></g>
<g><path style="opacity:0.855" fill="#7e83a2" d="M 246.5,331.5 C 249.241,331.707 251.574,332.707 253.5,334.5C 250.562,334.727 248.229,333.727 246.5,331.5 Z"/></g>
<g><path style="opacity:0.21" fill="#757fa5" d="M 253.5,334.5 C 254.043,334.56 254.376,334.893 254.5,335.5C 233.844,336.5 213.177,336.833 192.5,336.5C 212.833,335.833 233.167,335.167 253.5,334.5 Z"/></g>
<g><path style="opacity:0.698" fill="#343f7e" d="M 125.5,320.5 C 125.5,323.167 125.5,325.833 125.5,328.5C 125.5,329.833 125.5,331.167 125.5,332.5C 123.831,340.533 122.164,348.533 120.5,356.5C 119.833,357.5 119.167,358.5 118.5,359.5C 120.097,346.241 122.43,333.241 125.5,320.5 Z"/></g>
<g><path style="opacity:1" fill="#03247f" d="M 234.5,327.5 C 235.167,327.167 235.833,326.833 236.5,326.5C 238.819,326.992 240.819,327.992 242.5,329.5C 243.047,332.212 244.713,333.712 247.5,334C 228.833,334.333 210.167,334.667 191.5,335C 189.965,340.188 188.631,345.355 187.5,350.5C 187.161,344.545 186.328,343.878 185,348.5C 183.227,346.377 182.06,344.377 181.5,342.5C 179.947,344.772 177.781,346.105 175,346.5C 174.506,348.134 174.34,349.801 174.5,351.5C 168.521,351.075 162.688,351.741 157,353.5C 156.127,353.265 155.293,352.931 154.5,352.5C 151.336,354.552 148.003,356.218 144.5,357.5C 142.726,357.113 141.059,356.447 139.5,355.5C 135.792,358.609 131.459,360.109 126.5,360C 125.941,362.941 125.107,365.775 124,368.5C 122.758,366.141 121.258,364.141 119.5,362.5C 120.15,360.565 120.483,358.565 120.5,356.5C 122.164,348.533 123.831,340.533 125.5,332.5C 125.214,336.402 125.714,340.402 127,344.5C 127.374,343.584 127.874,342.75 128.5,342C 137.668,341.578 146.668,340.245 155.5,338C 155.167,337.667 154.833,337.333 154.5,337C 155.5,336.5 156.5,336 157.5,335.5C 162.035,335.686 166.535,335.686 171,335.5C 171.963,331.742 174.63,330.742 179,332.5C 180.168,331.491 181.335,330.491 182.5,329.5C 183.192,330.025 183.692,330.692 184,331.5C 186.071,330.475 188.238,329.642 190.5,329C 201.11,327.362 211.777,327.528 222.5,329.5C 223.333,327.5 224.167,325.5 225,323.5C 228.219,324.739 231.386,326.072 234.5,327.5 Z"/></g>
<g><path style="opacity:1" fill="#011778" d="M 187.5,350.5 C 187.375,356.444 186.375,362.11 184.5,367.5C 185.624,362.798 185.624,360.464 184.5,360.5C 176.233,362.724 167.9,364.558 159.5,366C 158.663,367.011 158.33,368.178 158.5,369.5C 156.723,369.214 155.056,368.547 153.5,367.5C 147.487,369.731 141.487,371.897 135.5,374C 132.438,374.741 129.438,374.575 126.5,373.5C 125.511,377.107 125.177,380.774 125.5,384.5C 124.167,384.5 122.833,384.5 121.5,384.5C 121.663,382.143 121.497,379.81 121,377.5C 120.049,377.116 119.216,376.783 118.5,376.5C 119.314,371.881 119.647,367.214 119.5,362.5C 121.258,364.141 122.758,366.141 124,368.5C 125.107,365.775 125.941,362.941 126.5,360C 131.459,360.109 135.792,358.609 139.5,355.5C 141.059,356.447 142.726,357.113 144.5,357.5C 148.003,356.218 151.336,354.552 154.5,352.5C 155.293,352.931 156.127,353.265 157,353.5C 162.688,351.741 168.521,351.075 174.5,351.5C 174.34,349.801 174.506,348.134 175,346.5C 177.781,346.105 179.947,344.772 181.5,342.5C 182.06,344.377 183.227,346.377 185,348.5C 186.328,343.878 187.161,344.545 187.5,350.5 Z"/></g>
<g><path style="opacity:0.839" fill="#37346d" d="M 242.5,329.5 C 244.153,329.66 245.486,330.326 246.5,331.5C 248.229,333.727 250.562,334.727 253.5,334.5C 233.167,335.167 212.833,335.833 192.5,336.5C 191.008,347.625 189.008,358.625 186.5,369.5C 184.496,374.525 183.496,379.858 183.5,385.5C 183.969,390.773 182.303,395.107 178.5,398.5C 177.024,396.77 177.358,395.437 179.5,394.5C 181.898,385.658 183.565,376.658 184.5,367.5C 186.375,362.11 187.375,356.444 187.5,350.5C 188.631,345.355 189.965,340.188 191.5,335C 210.167,334.667 228.833,334.333 247.5,334C 244.713,333.712 243.047,332.212 242.5,329.5 Z"/></g>
<g><path style="opacity:1" fill="#100d6d" d="M 184.5,367.5 C 183.565,376.658 181.898,385.658 179.5,394.5C 177.358,395.437 177.024,396.77 178.5,398.5C 177.737,399.268 176.737,399.768 175.5,400C 156.5,400.667 137.5,400.667 118.5,400C 117.263,399.768 116.263,399.268 115.5,398.5C 114.46,394.22 114.294,389.887 115,385.5C 116.742,382.623 117.909,379.623 118.5,376.5C 119.216,376.783 120.049,377.116 121,377.5C 121.497,379.81 121.663,382.143 121.5,384.5C 122.833,384.5 124.167,384.5 125.5,384.5C 125.177,380.774 125.511,377.107 126.5,373.5C 129.438,374.575 132.438,374.741 135.5,374C 141.487,371.897 147.487,369.731 153.5,367.5C 155.056,368.547 156.723,369.214 158.5,369.5C 158.33,368.178 158.663,367.011 159.5,366C 167.9,364.558 176.233,362.724 184.5,360.5C 185.624,360.464 185.624,362.798 184.5,367.5 Z"/></g>
<g><path style="opacity:0.949" fill="#2a2969" d="M 120.5,356.5 C 120.483,358.565 120.15,360.565 119.5,362.5C 119.647,367.214 119.314,371.881 118.5,376.5C 117.909,379.623 116.742,382.623 115,385.5C 114.294,389.887 114.46,394.22 115.5,398.5C 113.041,397.126 112.041,394.96 112.5,392C 113.125,386.083 114.125,380.25 115.5,374.5C 117.118,371.829 117.785,368.829 117.5,365.5C 117.205,363.265 117.539,361.265 118.5,359.5C 119.167,358.5 119.833,357.5 120.5,356.5 Z"/></g>
<g><path style="opacity:0.149" fill="#8b96b7" d="M 117.5,365.5 C 117.785,368.829 117.118,371.829 115.5,374.5C 115.676,371.273 116.343,368.273 117.5,365.5 Z"/></g>
<g><path style="opacity:0.125" fill="#9799c0" d="M 186.5,369.5 C 185.989,375.049 184.989,380.383 183.5,385.5C 183.496,379.858 184.496,374.525 186.5,369.5 Z"/></g>
</svg>
